<svg version="1.1" id="Layer_1" xmlns="http://www.w3.org/2000/svg" xmlns:xlink="http://www.w3.org/1999/xlink" x="0px" y="0px"
	 width="100%" viewBox="0 0 1723 778" enable-background="new 0 0 1723 778" xml:space="preserve">
<path fill="#F7F7F7" opacity="1.000000" stroke="none" 
	d="
M1203.000000,779.000000 
	C802.000000,779.000000 401.500000,779.000000 1.000000,779.000000 
	C1.000000,519.666687 1.000000,260.333344 1.000000,1.000000 
	C575.333313,1.000000 1149.666626,1.000000 1724.000000,1.000000 
	C1724.000000,260.333344 1724.000000,519.666687 1724.000000,779.000000 
	C1550.500000,779.000000 1377.000000,779.000000 1203.000000,779.000000 
M690.500061,12.854457 
	C464.728973,12.854457 238.957886,12.854457 13.104563,12.854457 
	C13.104563,264.619659 13.104563,515.870239 13.104563,767.161133 
	C579.583069,767.161133 1145.811401,767.161133 1712.185669,767.161133 
	C1712.185669,515.638306 1712.185669,264.420624 1712.185669,12.854456 
	C1371.769531,12.854456 1031.634766,12.854456 690.500061,12.854457 
z"/>
<path fill="#010101" opacity="1.000000" stroke="none" 
	d="
M691.000122,12.854456 
	C1031.634766,12.854456 1371.769531,12.854456 1712.185669,12.854456 
	C1712.185669,264.420624 1712.185669,515.638306 1712.185669,767.161133 
	C1145.811401,767.161133 579.583069,767.161133 13.104563,767.161133 
	C13.104563,515.870239 13.104563,264.619659 13.104563,12.854457 
	C238.957886,12.854457 464.728973,12.854457 691.000122,12.854456 
M421.827271,316.499939 
	C421.827271,400.273651 421.827271,484.047394 421.827271,567.942871 
	C464.243469,567.942871 506.161957,567.942871 548.463135,567.942871 
	C548.463135,504.283203 548.463135,440.851776 548.463135,377.212769 
	C606.614807,377.212769 664.383362,377.212769 722.534790,377.212769 
	C722.534790,440.850250 722.534790,504.281128 722.534790,567.821228 
	C764.955017,567.821228 806.991516,567.821228 848.923462,567.821228 
	C848.923462,401.372406 848.923462,235.275894 848.923462,69.057861 
	C806.755554,69.057861 764.837097,69.057861 722.534668,69.057861 
	C722.534668,132.717712 722.534668,196.148697 722.534668,259.787292 
	C664.381653,259.787292 606.612976,259.787292 548.463257,259.787292 
	C548.463257,196.150131 548.463257,132.719131 548.463257,69.179718 
	C506.044891,69.179718 464.008362,69.179718 421.827271,69.179718 
	C421.827271,151.521347 421.827271,233.510620 421.827271,316.499939 
M1304.398926,428.966003 
	C1304.398926,406.005157 1304.398926,383.044342 1304.398926,359.784119 
	C1261.766846,359.784119 1219.026611,359.784119 1175.996582,359.784119 
	C1175.996582,361.634003 1175.996582,363.283020 1175.996582,364.932007 
	C1175.996338,380.763184 1176.126099,396.595703 1175.965698,412.425262 
	C1175.719360,436.716492 1155.857544,456.671967 1131.739380,456.797699 
	C1105.743530,456.933258 1079.745483,456.974426 1053.750488,456.785065 
	C1029.890991,456.611267 1010.025574,436.380157 1010.014343,412.509857 
	C1009.983887,347.851959 1009.989075,283.194031 1010.010986,218.536133 
	C1010.019348,194.015625 1029.957397,174.039276 1054.420166,174.010376 
	C1080.083374,173.980057 1105.746460,173.987488 1131.409668,174.008545 
	C1152.847290,174.026138 1172.043701,189.367065 1174.847290,210.614746 
	C1176.621216,224.058655 1175.709839,237.857391 1175.991455,251.497238 
	C1176.027466,253.236694 1175.996338,254.977524 1175.996338,256.506958 
	C1219.361084,256.506958 1261.941040,256.506958 1304.840942,256.506958 
	C1304.840942,251.034653 1304.835815,245.892563 1304.841919,240.750473 
	C1304.863770,222.109985 1305.103394,203.523071 1301.080444,185.081329 
	C1287.172241,121.325264 1228.153442,70.824760 1163.004639,69.216003 
	C1114.708618,68.023392 1066.360229,68.711075 1018.038086,69.026840 
	C1008.811401,69.087128 999.413269,70.539276 990.409363,72.676849 
	C920.841003,89.192787 874.146240,148.846420 874.020508,221.160263 
	C873.907715,285.984619 874.009277,350.809326 873.990234,415.633881 
	C873.982849,440.848938 878.887573,465.002686 891.051392,487.177368 
	C918.276672,536.809143 960.197876,565.132690 1016.866211,567.616089 
	C1062.438354,569.613220 1108.164673,568.311523 1153.819824,568.027588 
	C1164.401611,567.961731 1175.132202,566.909180 1185.521606,564.899841 
	C1249.827881,552.463257 1300.019287,495.155060 1304.398926,428.966003 
M400.841370,106.500061 
	C400.841370,94.055336 400.841370,81.610611 400.841370,69.115349 
	C286.226013,69.115349 172.163528,69.115349 58.179863,69.115349 
	C58.179863,235.611313 58.179863,401.818787 58.179863,567.817993 
	C100.429527,567.817993 142.325775,567.817993 184.652206,567.817993 
	C184.652206,504.072754 184.652206,440.681030 184.652206,376.752014 
	C256.962097,376.752014 328.840088,376.752014 400.604858,376.752014 
	C400.604858,337.607788 400.604858,299.003815 400.604858,259.919006 
	C328.467407,259.919006 256.565338,259.919006 184.804077,259.919006 
	C184.804077,235.016571 184.804077,210.597244 184.804077,185.763962 
	C256.843658,185.763962 328.595062,185.763962 400.841370,185.763962 
	C400.841370,159.399902 400.841370,133.449982 400.841370,106.500061 
M1632.500000,566.846680 
	C1642.595947,566.846680 1652.691895,566.846680 1662.706177,566.846680 
	C1662.706177,527.470886 1662.706177,488.727539 1662.706177,449.643341 
	C1591.822388,449.643341 1521.239746,449.643341 1450.015625,449.643341 
	C1450.015625,321.983398 1450.015625,194.664551 1450.015625,67.333427 
	C1407.597168,67.333427 1365.822144,67.333427 1323.798096,67.333427 
	C1323.798096,233.874603 1323.798096,400.233795 1323.798096,566.846680 
	C1426.579346,566.846680 1529.039673,566.846680 1632.500000,566.846680 
M737.500000,603.991272 
	C511.412598,603.991272 285.325165,603.991272 59.364517,603.991272 
	C59.364517,608.256348 59.364517,611.972229 59.364517,615.543701 
	C594.794250,615.543701 1129.850586,615.543701 1664.994507,615.543701 
	C1664.994507,611.630859 1664.994507,608.023438 1664.994507,603.991272 
	C1356.039795,603.991272 1047.269897,603.991272 737.500000,603.991272 
M960.250122,653.681946 
	C957.478577,653.681946 954.707092,653.681946 951.354248,653.681946 
	C951.354248,668.178955 951.354248,682.106506 951.354248,697.517273 
	C949.457275,694.531128 948.379883,692.911743 947.378601,691.246521 
	C940.523010,679.845154 933.714233,668.415405 926.796265,657.052124 
	C926.003540,655.750000 924.696838,653.936218 923.511658,653.842896 
	C918.803711,653.472412 914.049438,653.690430 909.266479,653.690430 
	C909.266479,675.880798 909.266479,697.339355 909.266479,718.923462 
	C913.746765,718.923462 918.106995,718.923462 922.848328,718.923462 
	C922.848328,704.494202 922.848328,690.458130 922.848328,674.916504 
	C924.174011,677.104919 924.732666,678.023254 925.287537,678.943787 
	C932.756287,691.334839 940.134644,703.782471 947.804138,716.048035 
	C948.788818,717.622864 951.201294,718.940491 953.100708,719.174927 
	C956.992310,719.655151 960.984680,719.319092 965.119629,719.319092 
	C965.119629,697.299805 965.119629,675.737122 965.119629,653.682251 
	C963.686401,653.682251 962.406555,653.682251 960.250122,653.681946 
M1322.149658,674.500122 
	C1322.149658,689.287903 1322.149658,704.075684 1322.149658,719.003174 
	C1326.869263,719.003174 1331.262329,719.003174 1336.188965,719.003174 
	C1336.188965,704.560608 1336.188965,690.437195 1336.188965,675.127747 
	C1344.826904,689.488342 1352.751465,702.751221 1360.811035,715.931641 
	C1361.654663,717.311340 1363.221069,719.047546 1364.580566,719.167847 
	C1369.154785,719.572693 1373.787109,719.321838 1378.349731,719.321838 
	C1378.349731,697.159668 1378.349731,675.604980 1378.349731,653.863892 
	C1373.784546,653.863892 1369.509521,653.863892 1364.756714,653.863892 
	C1364.756714,668.219421 1364.756714,682.392334 1364.756714,697.790710 
	C1363.359497,695.644531 1362.635132,694.601685 1361.981079,693.516418 
	C1354.598755,681.267639 1347.274170,668.983398 1339.784790,656.800476 
	C1338.963989,655.465088 1337.276978,653.937500 1335.877808,653.816467 
	C1331.444458,653.433289 1326.957275,653.674866 1322.149658,653.674866 
	C1322.149658,660.578552 1322.149658,667.039368 1322.149658,674.500122 
M1441.059692,716.656006 
	C1442.569946,713.975586 1445.193726,711.371094 1445.382324,708.600708 
	C1445.956421,700.171265 1445.590576,691.677856 1445.590576,682.943848 
	C1436.216309,682.943848 1427.145996,682.943848 1418.061523,682.943848 
	C1418.061523,686.836426 1418.061523,690.532410 1418.061523,694.515869 
	C1422.555664,694.515869 1426.664429,694.515869 1431.149170,694.515869 
	C1431.149170,697.282166 1431.022339,699.763977 1431.178955,702.227722 
	C1431.411377,705.884949 1429.892334,707.366699 1426.196899,707.198120 
	C1421.706909,706.993286 1417.192261,706.979919 1412.703979,707.201416 
	C1408.855225,707.391296 1407.240479,705.927124 1407.285278,702.028625 
	C1407.404053,691.698486 1407.394287,681.365356 1407.289917,671.034851 
	C1407.252075,667.288025 1408.634766,665.436646 1412.559937,665.608398 
	C1416.052612,665.761292 1419.557251,665.639038 1423.056641,665.639465 
	C1430.890991,665.640320 1430.886841,665.640747 1431.261597,673.581055 
	C1431.275146,673.867249 1431.536621,674.141785 1431.725220,674.503479 
	C1436.248291,674.503479 1440.791870,674.503479 1445.639038,674.503479 
	C1445.639038,671.513855 1445.691040,668.867737 1445.628906,666.224243 
	C1445.467041,659.341919 1441.856079,654.308777 1435.045288,653.878174 
	C1424.605469,653.218201 1414.071045,653.255127 1403.622559,653.829529 
	C1397.189453,654.183167 1392.995850,659.319153 1392.921021,665.652222 
	C1392.757446,679.481201 1392.764893,693.314697 1392.919556,707.143921 
	C1392.989746,713.403259 1396.852173,718.579651 1402.994263,718.956848 
	C1413.760132,719.617920 1424.595581,719.257446 1435.398193,719.086914 
	C1437.086670,719.060242 1438.755371,717.777161 1441.059692,716.656006 
M1091.891479,716.507874 
	C1088.332031,709.226074 1084.772705,701.944275 1081.146240,694.525330 
	C1088.566528,692.021484 1091.313843,686.982666 1090.893677,679.753235 
	C1090.642944,675.438416 1090.902832,671.096191 1090.835449,666.767822 
	C1090.726196,659.745911 1086.859619,654.426819 1079.956299,654.136292 
	C1066.546753,653.571899 1053.096558,653.971130 1039.639893,653.971130 
	C1039.639893,675.810303 1039.639893,697.369507 1039.639893,719.026245 
	C1044.496704,719.026245 1049.069946,719.026245 1054.077515,719.026245 
	C1054.077515,710.820129 1054.077515,702.903870 1054.077515,694.848206 
	C1056.167358,694.848206 1057.856201,695.064087 1059.469971,694.807312 
	C1064.120605,694.067383 1066.627563,695.910095 1068.321533,700.358215 
	C1070.445312,705.934631 1073.312988,711.243408 1076.107178,716.537048 
	C1076.742432,717.740540 1078.333496,719.080139 1079.590698,719.194946 
	C1083.388672,719.541687 1087.241455,719.379456 1091.064941,719.222595 
	C1091.466064,719.206116 1091.814575,717.906250 1091.891479,716.507874 
M145.152481,705.491455 
	C145.152481,709.956482 145.152481,714.421448 145.152481,719.052734 
	C150.107361,719.052734 154.695938,719.052734 159.769516,719.052734 
	C159.769516,710.896484 159.769516,703.003357 159.769516,694.847595 
	C162.062302,694.847595 163.911240,695.090759 165.671646,694.799255 
	C169.947357,694.091431 172.281219,695.757629 173.913010,699.786316 
	C176.218689,705.478760 179.107483,710.942505 181.913727,716.418579 
	C182.505203,717.572876 183.767029,719.113281 184.806183,719.182617 
	C189.352097,719.485779 193.929733,719.313110 199.023376,719.313110 
	C194.768463,710.573669 190.916504,702.661865 187.068970,694.759155 
	C195.356689,690.493713 196.632248,688.408936 196.635300,679.419312 
	C196.636719,675.253906 196.676498,671.088074 196.626465,666.923279 
	C196.537506,659.515320 192.350266,654.248291 184.908081,653.980652 
	C171.792908,653.508850 158.648529,653.848633 145.152481,653.848633 
	C145.152481,670.906738 145.152481,687.700439 145.152481,705.491455 
M449.217041,657.268677 
	C446.826355,656.173889 444.456116,654.187561 442.041595,654.132263 
	C428.603180,653.824219 415.154022,653.984375 401.649353,653.984375 
	C401.649353,675.795654 401.649353,697.363342 401.649353,719.124390 
	C406.542480,719.124390 411.154907,719.124390 416.203247,719.124390 
	C416.203247,711.021606 416.203247,703.090027 416.203247,694.844666 
	C418.441650,694.844666 420.284943,695.081482 422.044312,694.797729 
	C426.319061,694.108215 428.641663,695.752686 430.266754,699.815613 
	C432.548340,705.519958 435.471405,710.975708 438.287231,716.451904 
	C438.875977,717.596863 440.143097,719.113953 441.181549,719.182190 
	C445.734985,719.481201 450.319214,719.311035 455.347717,719.311035 
	C451.131836,710.630005 447.286224,702.711426 443.317505,694.539368 
	C451.379547,691.917419 453.625488,686.042725 453.165283,678.454712 
	C452.943787,674.802002 453.564514,671.055603 452.998871,667.478943 
	C452.474640,664.163818 450.878113,661.018188 449.217041,657.268677 
M841.104126,670.609741 
	C841.104187,682.256775 841.068176,693.903931 841.116150,705.550781 
	C841.151855,714.211670 846.266113,719.640808 854.928223,719.846191 
	C863.741516,720.055237 872.568970,720.069397 881.380798,719.827576 
	C889.765991,719.597473 894.871338,714.103699 894.889099,705.782471 
	C894.916077,693.137207 894.904480,680.491760 894.893250,667.846436 
	C894.884705,658.208008 889.879883,653.189819 880.123169,653.115967 
	C872.636230,653.059326 865.148438,653.102783 857.661072,653.104309 
	C845.639709,653.106750 841.123779,657.621033 841.104126,670.609741 
M288.396454,690.146729 
	C293.789093,691.206970 299.177185,692.291199 304.575470,693.321716 
	C312.509430,694.836243 313.212128,695.580200 311.993378,703.491760 
	C311.782806,704.858765 309.785828,706.769592 308.398926,706.974548 
	C304.974213,707.480835 301.423798,707.194397 297.925537,707.133179 
	C290.876434,707.009949 289.212128,708.935486 289.174103,699.285828 
	C289.173126,699.032715 288.790588,698.781128 288.444305,698.354065 
	C286.421570,698.354065 284.260406,698.354065 282.099243,698.354065 
	C279.845032,698.354065 277.590790,698.354065 275.143799,698.354065 
	C275.143799,700.265320 275.148438,701.424988 275.143097,702.584656 
	C275.084290,715.301514 279.425598,719.635742 292.239136,719.645325 
	C297.071594,719.648926 301.904022,719.645874 306.736481,719.645874 
	C323.813660,719.645874 326.855743,716.623047 326.855408,699.654297 
	C326.855164,688.037170 323.547058,684.048401 311.933136,681.725891 
	C305.728027,680.484924 299.504852,679.332886 293.307220,678.056519 
	C287.952393,676.953735 290.234528,672.613281 289.913849,669.499268 
	C289.582977,666.286377 291.907990,665.671204 294.479401,665.656799 
	C298.645172,665.633545 302.811249,665.669800 306.976990,665.645081 
	C310.121216,665.626465 311.545013,667.123657 311.380249,670.282410 
	C311.322968,671.380920 311.602051,672.496948 311.721985,673.556152 
	C316.441498,673.556152 320.854401,673.556152 325.221039,673.556152 
	C326.985901,658.601624 322.453918,653.354736 308.065460,653.354187 
	C303.732910,653.354004 299.400391,653.354065 295.067841,653.354187 
	C278.268341,653.354492 275.135468,656.447205 275.143280,673.023315 
	C275.148224,683.588867 277.369293,686.606079 288.396454,690.146729 
M625.693604,657.505005 
	C625.693604,678.048706 625.693604,698.592346 625.693604,719.194092 
	C639.043396,719.194092 651.678101,719.422974 664.299866,719.117981 
	C673.551270,718.894531 678.038025,714.050415 678.098938,704.983887 
	C678.182678,692.508057 678.205688,680.030396 678.088501,667.555115 
	C678.008789,659.072571 673.392456,654.051514 664.902832,653.826904 
	C652.767761,653.505737 640.617859,653.652405 628.477295,653.818054 
	C627.537720,653.830872 626.621643,655.566284 625.693604,657.505005 
M1644.119385,672.550476 
	C1644.119263,670.719604 1644.162964,668.887451 1644.111572,667.057983 
	C1643.900024,659.520508 1639.858154,654.313049 1632.434937,654.039795 
	C1619.022095,653.546143 1605.578003,653.900085 1592.056274,653.900085 
	C1592.056274,675.805298 1592.056274,697.471863 1592.056274,719.174072 
	C1605.223389,719.174072 1618.034058,719.433777 1630.828125,719.084900 
	C1639.680542,718.843506 1644.065918,713.825256 1644.107422,704.993591 
	C1644.156738,694.507812 1644.119263,684.021667 1644.119385,672.550476 
M494.150360,696.499878 
	C494.150360,703.964600 494.150360,711.429321 494.150360,718.966492 
	C499.241425,718.966492 503.958191,718.966492 508.972595,718.966492 
	C508.972595,709.829590 508.972595,701.047180 508.972595,692.095520 
	C517.343262,692.095520 525.406433,692.095520 533.941040,692.095520 
	C533.941040,701.233276 533.941040,710.137451 533.941040,719.074585 
	C539.022583,719.074585 543.629028,719.074585 548.392944,719.074585 
	C548.392944,697.253052 548.392944,675.682678 548.392944,653.893555 
	C543.538025,653.893555 538.927246,653.893555 533.943115,653.893555 
	C533.943115,662.454712 533.943115,670.903320 533.943115,679.474854 
	C525.477966,679.474854 517.386108,679.474854 508.828217,679.474854 
	C508.828217,670.869385 508.828217,662.455261 508.828217,653.893311 
	C503.746674,653.893311 499.133057,653.893311 494.150360,653.893311 
	C494.150360,667.905090 494.150360,681.702454 494.150360,696.499878 
M700.648682,719.318970 
	C713.728027,719.318970 726.807373,719.318970 739.782959,719.318970 
	C739.782959,714.809631 739.782959,710.912170 739.782959,706.684448 
	C728.679749,706.684448 717.919495,706.684448 707.121277,706.684448 
	C707.121277,701.605713 707.121277,696.870850 707.121277,691.649292 
	C716.117249,691.649292 724.846985,691.649292 733.540527,691.649292 
	C733.540527,687.425354 733.540527,683.699219 733.540527,679.704956 
	C724.614441,679.704956 715.988281,679.704956 707.212341,679.704956 
	C707.212341,675.055542 707.212341,670.694092 707.212341,665.976685 
	C718.324463,665.976685 729.073425,665.976685 739.832947,665.976685 
	C739.832947,661.722290 739.832947,657.836487 739.832947,653.934082 
	C723.945801,653.934082 708.354553,653.934082 692.594360,653.934082 
	C692.594360,675.742859 692.594360,697.298279 692.594360,719.318970 
	C695.109192,719.318970 697.403015,719.318970 700.648682,719.318970 
M1173.418579,656.895569 
	C1172.171509,660.203125 1169.954712,663.479797 1169.848389,666.823547 
	C1169.430542,679.961121 1169.644165,693.120056 1169.690674,706.270752 
	C1169.717041,713.716492 1173.399780,718.697693 1180.748779,719.187500 
	C1190.514648,719.838318 1200.375122,719.729309 1210.157959,719.226440 
	C1216.298340,718.910767 1220.653442,714.610413 1221.137817,709.370789 
	C1221.531738,705.109436 1221.217896,700.782715 1221.217896,696.425964 
	C1216.286133,696.425964 1211.706543,696.425964 1206.869995,696.425964 
	C1206.869995,698.017090 1206.725220,699.352966 1206.895508,700.647400 
	C1207.544556,705.580750 1205.713013,707.739319 1200.520142,707.225098 
	C1196.728638,706.849609 1192.863159,707.009644 1189.043213,707.192383 
	C1185.368042,707.368164 1184.000000,705.871033 1184.076904,702.201843 
	C1184.247559,694.048523 1184.080933,685.888794 1184.141113,677.732361 
	C1184.238159,664.578552 1182.249023,665.648987 1196.033813,665.637695 
	C1206.473633,665.629150 1206.469971,665.636169 1207.002197,675.781677 
	C1207.016113,676.046997 1207.326782,676.296753 1207.597412,676.700562 
	C1211.948608,676.700562 1216.396606,676.700562 1221.304077,676.700562 
	C1221.304077,672.597046 1221.459961,668.624451 1221.263062,664.669373 
	C1221.036865,660.125061 1218.799316,656.021790 1214.502319,655.082703 
	C1201.619141,652.266907 1188.586182,652.002930 1175.668091,655.334900 
	C1175.059082,655.492126 1174.552368,656.045105 1173.418579,656.895569 
M830.120056,675.251465 
	C830.125488,672.588135 830.163940,669.924438 830.130188,667.261597 
	C830.023865,658.870483 825.339661,653.685608 817.034851,653.424927 
	C808.387573,653.153442 799.715820,653.112122 791.072266,653.436890 
	C782.932251,653.742798 778.217834,658.865234 778.167603,666.928345 
	C778.085693,680.078064 778.074951,693.229187 778.175659,706.378601 
	C778.230530,713.544373 781.970886,718.609131 788.975647,719.071899 
	C799.062683,719.738281 809.249512,719.645935 819.349487,719.082886 
	C825.494385,718.740417 829.518372,714.123352 829.998657,708.319458 
	C830.322388,704.407410 830.060425,700.446899 830.060425,696.450989 
	C825.053589,696.450989 820.513489,696.450989 815.670105,696.450989 
	C815.670105,698.068665 815.685486,699.382019 815.667419,700.694946 
	C815.582336,706.871887 815.321655,707.130249 809.142456,707.143250 
	C805.313904,707.151245 801.476379,706.980713 797.659424,707.191101 
	C793.878601,707.399475 792.726135,705.739014 792.801270,702.149414 
	C792.971924,693.996521 792.774109,685.836609 792.873291,677.681396 
	C793.034729,664.403564 790.642639,665.742920 804.692139,665.640808 
	C816.995605,665.551453 815.531372,665.297668 815.781982,675.752808 
	C815.789062,676.049866 816.057434,676.340698 816.441711,677.110840 
	C820.802246,676.813232 825.376343,676.501099 830.120056,675.251465 
M1142.971069,706.166565 
	C1144.429199,710.545471 1145.887329,714.924438 1147.257446,719.039185 
	C1152.635742,719.039185 1157.557129,719.039185 1162.964478,719.039185 
	C1155.303833,697.726868 1147.819214,676.810608 1140.183594,655.949463 
	C1139.815796,654.944519 1138.148315,653.838074 1137.036133,653.782837 
	C1132.240723,653.544617 1127.426880,653.680969 1122.382202,653.680969 
	C1114.547607,675.506348 1106.778809,697.148438 1098.884766,719.139221 
	C1104.226685,719.139221 1108.976685,719.139221 1113.956543,719.139221 
	C1115.305542,715.170715 1116.544189,711.218445 1118.029541,707.361267 
	C1118.433472,706.312439 1119.583618,704.774353 1120.386963,704.776978 
	C1127.809692,704.801147 1135.231567,705.114075 1142.971069,706.166565 
M227.707993,655.089355 
	C220.079834,676.322815 212.451691,697.556213 204.696014,719.144592 
	C210.094116,719.144592 214.853241,719.144592 219.810913,719.144592 
	C221.061127,715.447021 222.454712,711.880005 223.447311,708.204773 
	C224.171616,705.522766 225.391602,704.422058 228.310333,704.561279 
	C233.631424,704.815125 238.980209,704.794861 244.303833,704.568481 
	C247.271027,704.442261 248.869049,705.250244 249.608231,708.307861 
	C250.499969,711.996338 251.914810,715.558289 253.005661,718.878174 
	C258.437897,718.878174 263.452850,718.878174 268.726532,718.878174 
	C261.170624,697.872192 253.811050,677.341919 246.350540,656.848450 
	C245.912354,655.644775 244.673248,653.851196 243.784470,653.837952 
	C238.531113,653.759705 233.271133,654.127136 227.707993,655.089355 
M340.693909,686.499817 
	C340.693909,697.400757 340.693909,708.301697 340.693909,719.015259 
	C357.058197,719.015259 372.644287,719.015259 388.254089,719.015259 
	C388.254089,714.841858 388.254089,710.967651 388.254089,706.706116 
	C377.137421,706.706116 366.383270,706.706116 355.616699,706.706116 
	C355.616699,701.567932 355.616699,696.831299 355.616699,691.727173 
	C364.526154,691.727173 373.129425,691.727173 381.903198,691.727173 
	C381.903198,687.601440 381.903198,683.854126 381.903198,679.560730 
	C372.988983,679.560730 364.277130,679.560730 355.636108,679.560730 
	C355.636108,674.772522 355.636108,670.536743 355.636108,665.941956 
	C366.722504,665.941956 377.481384,665.941956 388.247437,665.941956 
	C388.247437,661.694153 388.247437,657.826416 388.247437,653.930542 
	C372.286957,653.930542 356.701813,653.930542 340.693878,653.930542 
	C340.693878,664.608337 340.693878,675.054077 340.693909,686.499817 
M85.988213,674.500122 
	C85.988213,689.404663 85.988213,704.309204 85.988213,719.216064 
	C91.332993,719.216064 96.069229,719.216064 101.216675,719.216064 
	C101.216675,710.158691 101.216675,701.409912 101.216675,692.327515 
	C110.246971,692.327515 118.860039,692.327515 127.567848,692.327515 
	C127.567848,688.080139 127.567848,684.186218 127.567848,679.814819 
	C118.569923,679.814819 109.845215,679.814819 101.272362,679.814819 
	C101.272362,675.066284 101.272362,670.803223 101.272362,665.991577 
	C112.387558,665.991577 123.254852,665.991577 133.807541,665.991577 
	C133.807541,661.523438 133.807541,657.621948 133.807541,653.760620 
	C117.690704,653.760620 101.951553,653.760620 85.988213,653.760620 
	C85.988213,660.534424 85.988213,667.017334 85.988213,674.500122 
M576.018372,689.534241 
	C582.836121,698.542297 578.493591,709.189209 580.241394,719.025818 
	C584.888489,719.025818 589.437744,719.025818 594.310974,719.025818 
	C594.310974,713.783936 594.562927,708.804626 594.239502,703.863037 
	C593.922180,699.015625 595.175354,694.820251 597.480835,690.609924 
	C603.228699,680.112793 608.693481,669.460571 614.257080,658.862732 
	C615.054504,657.343750 615.769592,655.781494 616.791565,653.689026 
	C612.744202,653.689026 609.545898,654.029724 606.451721,653.607178 
	C602.061035,653.007568 599.973145,654.872803 598.259888,658.743408 
	C594.955200,666.209473 591.098145,673.431091 587.084534,681.532349 
	C582.726746,672.700012 578.904480,664.802307 574.904968,656.995483 
	C574.238403,655.694458 572.868591,653.943359 571.706726,653.849487 
	C567.174072,653.483521 562.594299,653.700195 557.220520,653.700195 
	C563.690063,665.986206 569.709229,677.417053 576.018372,689.534241 
M1237.544922,665.854919 
	C1240.782349,665.854919 1244.019897,665.854919 1247.544434,665.854919 
	C1247.544434,684.047852 1247.544434,701.471741 1247.544434,719.075195 
	C1252.440186,719.075195 1257.029297,719.075195 1262.027222,719.075195 
	C1262.027222,701.253235 1262.027222,683.683228 1262.027222,665.624023 
	C1268.493530,665.624023 1274.561523,665.624023 1280.532349,665.624023 
	C1280.532349,661.395691 1280.532349,657.669922 1280.532349,653.908569 
	C1262.944702,653.908569 1245.680786,653.908569 1228.423828,653.908569 
	C1228.423828,657.909485 1228.423828,661.667603 1228.423828,665.854919 
	C1231.315552,665.854919 1233.943237,665.854919 1237.544922,665.854919 
M984.585632,653.670044 
	C981.783386,653.670044 978.981140,653.670044 976.083984,653.670044 
	C976.083984,657.863953 976.083984,661.634766 976.083984,665.945984 
	C982.507935,665.945984 988.731323,665.945984 995.186768,665.945984 
	C995.186768,683.942810 995.186768,701.397400 995.186768,719.086426 
	C1000.032471,719.086426 1004.622864,719.086426 1009.699707,719.086426 
	C1009.699707,701.297546 1009.699707,683.745300 1009.699707,665.681763 
	C1016.232910,665.681763 1022.292908,665.681763 1028.312622,665.681763 
	C1028.312622,661.427124 1028.312622,657.699158 1028.312622,653.670105 
	C1013.843079,653.670105 999.704224,653.670105 984.585632,653.670044 
M1547.355591,683.500488 
	C1547.355591,695.284424 1547.355591,707.068298 1547.355591,719.088257 
	C1552.384521,719.088257 1556.974854,719.088257 1561.994507,719.088257 
	C1561.994507,701.276611 1561.994507,683.702148 1561.994507,665.769714 
	C1568.513062,665.769714 1574.610718,665.769714 1580.916016,665.769714 
	C1580.916016,661.635803 1580.916016,657.865295 1580.916016,653.974609 
	C1563.410034,653.974609 1546.004395,653.974609 1528.676758,653.974609 
	C1528.676758,658.043701 1528.676758,661.803223 1528.676758,666.037598 
	C1535.072632,666.037598 1541.156860,666.037598 1547.355591,666.037598 
	C1547.355591,671.847351 1547.355591,677.173950 1547.355591,683.500488 
M1486.698853,707.494873 
	C1486.698853,711.282837 1486.698853,715.070801 1486.698853,719.072815 
	C1501.872070,719.072815 1516.609741,719.072815 1531.560059,719.072815 
	C1531.560059,715.002441 1531.560059,711.106506 1531.560059,706.826355 
	C1521.370361,706.826355 1511.446655,706.826355 1500.991699,706.826355 
	C1500.991699,688.900818 1500.991699,671.353271 1500.991699,653.932739 
	C1496.003174,653.932739 1491.558716,653.932739 1486.698853,653.932739 
	C1486.698853,671.608093 1486.698853,689.052673 1486.698853,707.494873 
M1306.113892,678.500000 
	C1306.113892,670.261963 1306.113892,662.023926 1306.113892,653.951782 
	C1300.952881,653.951782 1296.516357,653.951782 1292.083008,653.951782 
	C1292.083008,675.862427 1292.083008,697.519897 1292.083008,719.057007 
	C1296.896606,719.057007 1301.324951,719.057007 1306.113892,719.057007 
	C1306.113892,705.712219 1306.113892,692.606079 1306.113892,678.500000 
z"/>
<path fill="#FDFCFC" opacity="1.000000" stroke="none" 
	d="
M421.827271,315.999908 
	C421.827271,233.510620 421.827271,151.521347 421.827271,69.179718 
	C464.008362,69.179718 506.044891,69.179718 548.463257,69.179718 
	C548.463257,132.719131 548.463257,196.150131 548.463257,259.787292 
	C606.612976,259.787292 664.381653,259.787292 722.534668,259.787292 
	C722.534668,196.148697 722.534668,132.717712 722.534668,69.057861 
	C764.837097,69.057861 806.755554,69.057861 848.923462,69.057861 
	C848.923462,235.275894 848.923462,401.372406 848.923462,567.821228 
	C806.991516,567.821228 764.955017,567.821228 722.534790,567.821228 
	C722.534790,504.281128 722.534790,440.850250 722.534790,377.212769 
	C664.383362,377.212769 606.614807,377.212769 548.463135,377.212769 
	C548.463135,440.851776 548.463135,504.283203 548.463135,567.942871 
	C506.161957,567.942871 464.243469,567.942871 421.827271,567.942871 
	C421.827271,484.047394 421.827271,400.273651 421.827271,315.999908 
M621.500000,358.826508 
	C661.116882,358.826508 700.733765,358.826508 740.791138,358.826508 
	C740.791138,422.709839 740.791138,486.113495 740.791138,549.654114 
	C771.099426,549.654114 800.964111,549.654114 830.647339,549.654114 
	C830.647339,395.261566 830.647339,241.209625 830.647339,87.324165 
	C800.546814,87.324165 770.794434,87.324165 740.621216,87.324165 
	C740.621216,151.056717 740.621216,214.471573 740.621216,277.834473 
	C670.296204,277.834473 600.395874,277.834473 530.036133,277.834473 
	C530.036133,214.104340 530.036133,150.712296 530.036133,87.257736 
	C499.832611,87.257736 470.090515,87.257736 440.264679,87.257736 
	C440.264679,241.561737 440.264679,395.613495 440.264679,549.756104 
	C470.271149,549.756104 500.017883,549.756104 530.206055,549.756104 
	C530.206055,486.116119 530.206055,422.712677 530.206055,358.826477 
	C560.597107,358.826477 590.548584,358.826477 621.500000,358.826508 
z"/>
<path fill="#FDFCFC" opacity="1.000000" stroke="none" 
	d="
M1304.328369,429.422516 
	C1300.019287,495.155060 1249.827881,552.463257 1185.521606,564.899841 
	C1175.132202,566.909180 1164.401611,567.961731 1153.819824,568.027588 
	C1108.164673,568.311523 1062.438354,569.613220 1016.866211,567.616089 
	C960.197876,565.132690 918.276672,536.809143 891.051392,487.177368 
	C878.887573,465.002686 873.982849,440.848938 873.990234,415.633881 
	C874.009277,350.809326 873.907715,285.984619 874.020508,221.160263 
	C874.146240,148.846420 920.841003,89.192787 990.409363,72.676849 
	C999.413269,70.539276 1008.811401,69.087128 1018.038086,69.026840 
	C1066.360229,68.711075 1114.708618,68.023392 1163.004639,69.216003 
	C1228.153442,70.824760 1287.172241,121.325264 1301.080444,185.081329 
	C1305.103394,203.523071 1304.863770,222.109985 1304.841919,240.750473 
	C1304.835815,245.892563 1304.840942,251.034653 1304.840942,256.506958 
	C1261.941040,256.506958 1219.361084,256.506958 1175.996338,256.506958 
	C1175.996338,254.977524 1176.027466,253.236694 1175.991455,251.497238 
	C1175.709839,237.857391 1176.621216,224.058655 1174.847290,210.614746 
	C1172.043701,189.367065 1152.847290,174.026138 1131.409668,174.008545 
	C1105.746460,173.987488 1080.083374,173.980057 1054.420166,174.010376 
	C1029.957397,174.039276 1010.019348,194.015625 1010.010986,218.536133 
	C1009.989075,283.194031 1009.983887,347.851959 1010.014343,412.509857 
	C1010.025574,436.380157 1029.890991,456.611267 1053.750488,456.785065 
	C1079.745483,456.974426 1105.743530,456.933258 1131.739380,456.797699 
	C1155.857544,456.671967 1175.719360,436.716492 1175.965698,412.425262 
	C1176.126099,396.595703 1175.996338,380.763184 1175.996582,364.932007 
	C1175.996582,363.283020 1175.996582,361.634003 1175.996582,359.784119 
	C1219.026611,359.784119 1261.766846,359.784119 1304.398926,359.784119 
	C1304.398926,383.044342 1304.398926,406.005157 1304.328369,429.422516 
M962.770203,102.208099 
	C915.861023,129.013641 892.439392,169.623505 892.230286,223.458099 
	C891.983704,286.946564 892.116211,350.436829 892.246094,413.925995 
	C892.261719,421.549896 892.848999,429.233368 893.912537,436.784851 
	C903.030640,501.527618 958.821167,549.988525 1024.033203,549.994690 
	C1066.359497,549.998718 1108.685669,550.029175 1151.011841,549.957092 
	C1156.995361,549.946838 1163.031738,549.835754 1168.952393,549.067688 
	C1217.216797,542.806152 1252.002441,517.489929 1273.958862,474.257904 
	C1289.452515,443.751068 1286.476440,410.895660 1286.301147,378.212952 
	C1255.525635,378.212952 1224.997192,378.212952 1194.171509,378.212952 
	C1194.171509,390.052948 1194.268555,401.528259 1194.153320,413.001404 
	C1193.807983,447.371277 1165.862793,474.991089 1131.498901,475.002960 
	C1105.503174,475.011932 1079.507446,475.042725 1053.511841,474.995239 
	C1019.920471,474.933868 991.848938,446.780823 991.835327,413.126373 
	C991.808899,347.970551 991.811096,282.814758 991.834106,217.658936 
	C991.846069,183.904221 1019.772217,155.887741 1053.441895,155.835770 
	C1079.104248,155.796173 1104.766724,155.823776 1130.429077,155.827667 
	C1166.787109,155.833176 1194.151367,183.235138 1194.171875,219.653625 
	C1194.175293,225.776611 1194.172241,231.899612 1194.172241,238.171326 
	C1225.145508,238.171326 1255.551025,238.171326 1287.028931,238.171326 
	C1286.381348,225.262436 1286.523438,212.595490 1284.989746,200.134796 
	C1277.256714,137.308548 1220.134766,87.070320 1156.843018,87.012444 
	C1113.016968,86.972359 1069.190796,87.053207 1025.364868,86.984123 
	C1003.492126,86.949638 982.859619,91.839676 962.770203,102.208099 
z"/>
<path fill="#FDFCFC" opacity="1.000000" stroke="none" 
	d="
M400.841370,107.000061 
	C400.841370,133.449982 400.841370,159.399902 400.841370,185.763962 
	C328.595062,185.763962 256.843658,185.763962 184.804077,185.763962 
	C184.804077,210.597244 184.804077,235.016571 184.804077,259.919006 
	C256.565338,259.919006 328.467407,259.919006 400.604858,259.919006 
	C400.604858,299.003815 400.604858,337.607788 400.604858,376.752014 
	C328.840088,376.752014 256.962097,376.752014 184.652206,376.752014 
	C184.652206,440.681030 184.652206,504.072754 184.652206,567.817993 
	C142.325775,567.817993 100.429527,567.817993 58.179863,567.817993 
	C58.179863,401.818787 58.179863,235.611313 58.179863,69.115349 
	C172.163528,69.115349 286.226013,69.115349 400.841370,69.115349 
	C400.841370,81.610611 400.841370,94.055336 400.841370,107.000061 
M214.499786,167.464462 
	C270.398926,167.464462 326.298096,167.464462 382.200348,167.464462 
	C382.200348,140.216202 382.200348,113.800400 382.200348,87.292213 
	C280.050537,87.292213 178.166168,87.292213 76.289230,87.292213 
	C76.289230,241.623459 76.289230,395.668304 76.289230,549.735352 
	C106.319916,549.735352 136.066574,549.735352 166.245850,549.735352 
	C166.245850,486.074829 166.245850,422.671539 166.245850,358.799591 
	C238.418747,358.799591 310.159576,358.799591 382.169067,358.799591 
	C382.169067,331.771179 382.169067,305.213989 382.169067,278.181396 
	C310.136475,278.181396 238.397766,278.181396 166.406952,278.181396 
	C166.406952,241.144424 166.406952,204.582916 166.406952,167.464630 
	C182.251328,167.464630 197.875549,167.464630 214.499786,167.464462 
z"/>
<path fill="#FCF9F9" opacity="1.000000" stroke="none" 
	d="
M1632.000000,566.846680 
	C1529.039673,566.846680 1426.579346,566.846680 1323.798096,566.846680 
	C1323.798096,400.233795 1323.798096,233.874603 1323.798096,67.333427 
	C1365.822144,67.333427 1407.597168,67.333427 1450.015625,67.333427 
	C1450.015625,194.664551 1450.015625,321.983398 1450.015625,449.643341 
	C1521.239746,449.643341 1591.822388,449.643341 1662.706177,449.643341 
	C1662.706177,488.727539 1662.706177,527.470886 1662.706177,566.846680 
	C1652.691895,566.846680 1642.595947,566.846680 1632.000000,566.846680 
M1341.854004,509.499969 
	C1341.854004,522.424011 1341.854004,535.348083 1341.854004,548.149170 
	C1443.173218,548.149170 1543.761719,548.149170 1644.465942,548.149170 
	C1644.465942,521.296753 1644.465942,494.750793 1644.465942,467.858154 
	C1573.521118,467.858154 1502.929077,467.858154 1431.894287,467.858154 
	C1431.894287,340.277405 1431.894287,213.044556 1431.894287,85.853470 
	C1401.709961,85.853470 1371.971191,85.853470 1341.854004,85.853470 
	C1341.854004,226.940460 1341.854004,367.720184 1341.854004,509.499969 
z"/>
<path fill="#FAFAFA" opacity="1.000000" stroke="none" 
	d="
M738.000000,603.991272 
	C1047.269897,603.991272 1356.039795,603.991272 1664.994507,603.991272 
	C1664.994507,608.023438 1664.994507,611.630859 1664.994507,615.543701 
	C1129.850586,615.543701 594.794250,615.543701 59.364517,615.543701 
	C59.364517,611.972229 59.364517,608.256348 59.364517,603.991272 
	C285.325165,603.991272 511.412598,603.991272 738.000000,603.991272 
z"/>
<path fill="#F9F9F9" opacity="1.000000" stroke="none" 
	d="
M960.688416,653.682129 
	C962.406555,653.682251 963.686401,653.682251 965.119629,653.682251 
	C965.119629,675.737122 965.119629,697.299805 965.119629,719.319092 
	C960.984680,719.319092 956.992310,719.655151 953.100708,719.174927 
	C951.201294,718.940491 948.788818,717.622864 947.804138,716.048035 
	C940.134644,703.782471 932.756287,691.334839 925.287537,678.943787 
	C924.732666,678.023254 924.174011,677.104919 922.848328,674.916504 
	C922.848328,690.458130 922.848328,704.494202 922.848328,718.923462 
	C918.106995,718.923462 913.746765,718.923462 909.266479,718.923462 
	C909.266479,697.339355 909.266479,675.880798 909.266479,653.690430 
	C914.049438,653.690430 918.803711,653.472412 923.511658,653.842896 
	C924.696838,653.936218 926.003540,655.750000 926.796265,657.052124 
	C933.714233,668.415405 940.523010,679.845154 947.378601,691.246521 
	C948.379883,692.911743 949.457275,694.531128 951.354248,697.517273 
	C951.354248,682.106506 951.354248,668.178955 951.354248,653.681946 
	C954.707092,653.681946 957.478577,653.681946 960.688416,653.682129 
z"/>
<path fill="#F8F8F8" opacity="1.000000" stroke="none" 
	d="
M1322.149658,674.000183 
	C1322.149658,667.039368 1322.149658,660.578552 1322.149658,653.674866 
	C1326.957275,653.674866 1331.444458,653.433289 1335.877808,653.816467 
	C1337.276978,653.937500 1338.963989,655.465088 1339.784790,656.800476 
	C1347.274170,668.983398 1354.598755,681.267639 1361.981079,693.516418 
	C1362.635132,694.601685 1363.359497,695.644531 1364.756714,697.790710 
	C1364.756714,682.392334 1364.756714,668.219421 1364.756714,653.863892 
	C1369.509521,653.863892 1373.784546,653.863892 1378.349731,653.863892 
	C1378.349731,675.604980 1378.349731,697.159668 1378.349731,719.321838 
	C1373.787109,719.321838 1369.154785,719.572693 1364.580566,719.167847 
	C1363.221069,719.047546 1361.654663,717.311340 1360.811035,715.931641 
	C1352.751465,702.751221 1344.826904,689.488342 1336.188965,675.127747 
	C1336.188965,690.437195 1336.188965,704.560608 1336.188965,719.003174 
	C1331.262329,719.003174 1326.869263,719.003174 1322.149658,719.003174 
	C1322.149658,704.075684 1322.149658,689.287903 1322.149658,674.000183 
z"/>
<path fill="#F7F7F7" opacity="1.000000" stroke="none" 
	d="
M1440.746460,716.865540 
	C1438.755371,717.777161 1437.086670,719.060242 1435.398193,719.086914 
	C1424.595581,719.257446 1413.760132,719.617920 1402.994263,718.956848 
	C1396.852173,718.579651 1392.989746,713.403259 1392.919556,707.143921 
	C1392.764893,693.314697 1392.757446,679.481201 1392.921021,665.652222 
	C1392.995850,659.319153 1397.189453,654.183167 1403.622559,653.829529 
	C1414.071045,653.255127 1424.605469,653.218201 1435.045288,653.878174 
	C1441.856079,654.308777 1445.467041,659.341919 1445.628906,666.224243 
	C1445.691040,668.867737 1445.639038,671.513855 1445.639038,674.503479 
	C1440.791870,674.503479 1436.248291,674.503479 1431.725220,674.503479 
	C1431.536621,674.141785 1431.275146,673.867249 1431.261597,673.581055 
	C1430.886841,665.640747 1430.890991,665.640320 1423.056641,665.639465 
	C1419.557251,665.639038 1416.052612,665.761292 1412.559937,665.608398 
	C1408.634766,665.436646 1407.252075,667.288025 1407.289917,671.034851 
	C1407.394287,681.365356 1407.404053,691.698486 1407.285278,702.028625 
	C1407.240479,705.927124 1408.855225,707.391296 1412.703979,707.201416 
	C1417.192261,706.979919 1421.706909,706.993286 1426.196899,707.198120 
	C1429.892334,707.366699 1431.411377,705.884949 1431.178955,702.227722 
	C1431.022339,699.763977 1431.149170,697.282166 1431.149170,694.515869 
	C1426.664429,694.515869 1422.555664,694.515869 1418.061523,694.515869 
	C1418.061523,690.532410 1418.061523,686.836426 1418.061523,682.943848 
	C1427.145996,682.943848 1436.216309,682.943848 1445.590576,682.943848 
	C1445.590576,691.677856 1445.956421,700.171265 1445.382324,708.600708 
	C1445.193726,711.371094 1442.569946,713.975586 1440.746460,716.865540 
z"/>
<path fill="#F8F8F8" opacity="1.000000" stroke="none" 
	d="
M1092.039551,716.854858 
	C1091.814575,717.906250 1091.466064,719.206116 1091.064941,719.222595 
	C1087.241455,719.379456 1083.388672,719.541687 1079.590698,719.194946 
	C1078.333496,719.080139 1076.742432,717.740540 1076.107178,716.537048 
	C1073.312988,711.243408 1070.445312,705.934631 1068.321533,700.358215 
	C1066.627563,695.910095 1064.120605,694.067383 1059.469971,694.807312 
	C1057.856201,695.064087 1056.167358,694.848206 1054.077515,694.848206 
	C1054.077515,702.903870 1054.077515,710.820129 1054.077515,719.026245 
	C1049.069946,719.026245 1044.496704,719.026245 1039.639893,719.026245 
	C1039.639893,697.369507 1039.639893,675.810303 1039.639893,653.971130 
	C1053.096558,653.971130 1066.546753,653.571899 1079.956299,654.136292 
	C1086.859619,654.426819 1090.726196,659.745911 1090.835449,666.767822 
	C1090.902832,671.096191 1090.642944,675.438416 1090.893677,679.753235 
	C1091.313843,686.982666 1088.566528,692.021484 1081.146240,694.525330 
	C1084.772705,701.944275 1088.332031,709.226074 1092.039551,716.854858 
M1054.781250,666.173462 
	C1054.354492,671.578979 1053.927734,676.984436 1053.476196,682.704041 
	C1058.050171,682.704041 1061.515015,682.734253 1064.979248,682.698608 
	C1077.567993,682.569092 1076.308472,684.665710 1076.416382,670.766785 
	C1076.442383,667.404907 1075.121826,665.958191 1071.671753,666.068054 
	C1066.367065,666.236938 1061.052979,666.114868 1054.781250,666.173462 
z"/>
<path fill="#F9F9F9" opacity="1.000000" stroke="none" 
	d="
M145.152481,704.992798 
	C145.152481,687.700439 145.152481,670.906738 145.152481,653.848633 
	C158.648529,653.848633 171.792908,653.508850 184.908081,653.980652 
	C192.350266,654.248291 196.537506,659.515320 196.626465,666.923279 
	C196.676498,671.088074 196.636719,675.253906 196.635300,679.419312 
	C196.632248,688.408936 195.356689,690.493713 187.068970,694.759155 
	C190.916504,702.661865 194.768463,710.573669 199.023376,719.313110 
	C193.929733,719.313110 189.352097,719.485779 184.806183,719.182617 
	C183.767029,719.113281 182.505203,717.572876 181.913727,716.418579 
	C179.107483,710.942505 176.218689,705.478760 173.913010,699.786316 
	C172.281219,695.757629 169.947357,694.091431 165.671646,694.799255 
	C163.911240,695.090759 162.062302,694.847595 159.769516,694.847595 
	C159.769516,703.003357 159.769516,710.896484 159.769516,719.052734 
	C154.695938,719.052734 150.107361,719.052734 145.152481,719.052734 
	C145.152481,714.421448 145.152481,709.956482 145.152481,704.992798 
M182.173737,671.700806 
	C182.194016,668.980530 182.439301,666.112061 178.411682,666.113953 
	C172.301895,666.116821 166.192108,666.114624 159.608063,666.114624 
	C159.608063,669.973022 159.608063,673.415955 159.608063,676.858887 
	C159.608063,678.648743 159.608063,680.438599 159.608063,682.705750 
	C164.020599,682.705750 167.971283,682.723450 171.921768,682.702332 
	C182.835541,682.644104 182.198456,684.105896 182.173737,671.700806 
z"/>
<path fill="#FAFAFA" opacity="1.000000" stroke="none" 
	d="
M449.485382,657.533325 
	C450.878113,661.018188 452.474640,664.163818 452.998871,667.478943 
	C453.564514,671.055603 452.943787,674.802002 453.165283,678.454712 
	C453.625488,686.042725 451.379547,691.917419 443.317505,694.539368 
	C447.286224,702.711426 451.131836,710.630005 455.347717,719.311035 
	C450.319214,719.311035 445.734985,719.481201 441.181549,719.182190 
	C440.143097,719.113953 438.875977,717.596863 438.287231,716.451904 
	C435.471405,710.975708 432.548340,705.519958 430.266754,699.815613 
	C428.641663,695.752686 426.319061,694.108215 422.044312,694.797729 
	C420.284943,695.081482 418.441650,694.844666 416.203247,694.844666 
	C416.203247,703.090027 416.203247,711.021606 416.203247,719.124390 
	C411.154907,719.124390 406.542480,719.124390 401.649353,719.124390 
	C401.649353,697.363342 401.649353,675.795654 401.649353,653.984375 
	C415.154022,653.984375 428.603180,653.824219 442.041595,654.132263 
	C444.456116,654.187561 446.826355,656.173889 449.485382,657.533325 
M431.321594,666.103760 
	C426.373016,666.103760 421.424438,666.103760 416.354492,666.103760 
	C416.354492,671.846375 416.354492,677.083557 416.354492,682.714722 
	C420.390808,682.714722 424.188019,682.737610 427.984863,682.710388 
	C439.522919,682.627808 438.150452,684.154907 438.497528,672.324402 
	C438.638641,667.514038 437.186737,665.348938 431.321594,666.103760 
z"/>
<path fill="#FBFBFB" opacity="1.000000" stroke="none" 
	d="
M841.104126,670.130615 
	C841.123779,657.621033 845.639709,653.106750 857.661072,653.104309 
	C865.148438,653.102783 872.636230,653.059326 880.123169,653.115967 
	C889.879883,653.189819 894.884705,658.208008 894.893250,667.846436 
	C894.904480,680.491760 894.916077,693.137207 894.889099,705.782471 
	C894.871338,714.103699 889.765991,719.597473 881.380798,719.827576 
	C872.568970,720.069397 863.741516,720.055237 854.928223,719.846191 
	C846.266113,719.640808 841.151855,714.211670 841.116150,705.550781 
	C841.068176,693.903931 841.104187,682.256775 841.104126,670.130615 
M856.819824,705.621948 
	C858.148071,706.081604 859.464478,706.892883 860.806641,706.937866 
	C865.622314,707.098938 870.450867,706.879517 875.266479,707.041565 
	C878.720093,707.157776 880.049988,705.670044 880.026855,702.315369 
	C879.953613,691.676086 879.952393,681.035645 880.029053,670.396423 
	C880.051758,667.238892 878.732300,665.825806 875.577759,665.870300 
	C870.591370,665.940613 865.599548,666.006226 860.617188,665.847595 
	C857.273071,665.741150 856.313721,667.271790 856.351440,670.373779 
	C856.490906,681.841125 856.474121,693.310486 856.819824,705.621948 
z"/>
<path fill="#F6F6F6" opacity="1.000000" stroke="none" 
	d="
M288.005371,690.055725 
	C277.369293,686.606079 275.148224,683.588867 275.143280,673.023315 
	C275.135468,656.447205 278.268341,653.354492 295.067841,653.354187 
	C299.400391,653.354065 303.732910,653.354004 308.065460,653.354187 
	C322.453918,653.354736 326.985901,658.601624 325.221039,673.556152 
	C320.854401,673.556152 316.441498,673.556152 311.721985,673.556152 
	C311.602051,672.496948 311.322968,671.380920 311.380249,670.282410 
	C311.545013,667.123657 310.121216,665.626465 306.976990,665.645081 
	C302.811249,665.669800 298.645172,665.633545 294.479401,665.656799 
	C291.907990,665.671204 289.582977,666.286377 289.913849,669.499268 
	C290.234528,672.613281 287.952393,676.953735 293.307220,678.056519 
	C299.504852,679.332886 305.728027,680.484924 311.933136,681.725891 
	C323.547058,684.048401 326.855164,688.037170 326.855408,699.654297 
	C326.855743,716.623047 323.813660,719.645874 306.736481,719.645874 
	C301.904022,719.645874 297.071594,719.648926 292.239136,719.645325 
	C279.425598,719.635742 275.084290,715.301514 275.143097,702.584656 
	C275.148438,701.424988 275.143799,700.265320 275.143799,698.354065 
	C277.590790,698.354065 279.845032,698.354065 282.099243,698.354065 
	C284.260406,698.354065 286.421570,698.354065 288.444305,698.354065 
	C288.790588,698.781128 289.173126,699.032715 289.174103,699.285828 
	C289.212128,708.935486 290.876434,707.009949 297.925537,707.133179 
	C301.423798,707.194397 304.974213,707.480835 308.398926,706.974548 
	C309.785828,706.769592 311.782806,704.858765 311.993378,703.491760 
	C313.212128,695.580200 312.509430,694.836243 304.575470,693.321716 
	C299.177185,692.291199 293.789093,691.206970 288.005371,690.055725 
z"/>
<path fill="#FDFDFD" opacity="1.000000" stroke="none" 
	d="
M625.694092,657.003052 
	C626.621643,655.566284 627.537720,653.830872 628.477295,653.818054 
	C640.617859,653.652405 652.767761,653.505737 664.902832,653.826904 
	C673.392456,654.051514 678.008789,659.072571 678.088501,667.555115 
	C678.205688,680.030396 678.182678,692.508057 678.098938,704.983887 
	C678.038025,714.050415 673.551270,718.894531 664.299866,719.117981 
	C651.678101,719.422974 639.043396,719.194092 625.693604,719.194092 
	C625.693604,698.592346 625.693604,678.048706 625.694092,657.003052 
M663.391785,676.550415 
	C663.389160,674.222351 663.712952,671.827881 663.257874,669.591919 
	C662.997437,668.312256 661.511169,666.348633 660.506714,666.304871 
	C653.776917,666.012024 647.028320,666.152649 640.352478,666.152649 
	C640.352478,680.041382 640.352478,693.278320 640.352478,706.889160 
	C646.536072,706.889160 652.489319,706.761597 658.433716,706.936401 
	C662.073120,707.043396 663.514526,705.662109 663.441589,701.979370 
	C663.280334,693.834229 663.391663,685.683716 663.391785,676.550415 
z"/>
<path fill="#FDFDFD" opacity="1.000000" stroke="none" 
	d="
M1644.119385,673.043091 
	C1644.119263,684.021667 1644.156738,694.507812 1644.107422,704.993591 
	C1644.065918,713.825256 1639.680542,718.843506 1630.828125,719.084900 
	C1618.034058,719.433777 1605.223389,719.174072 1592.056274,719.174072 
	C1592.056274,697.471863 1592.056274,675.805298 1592.056274,653.900085 
	C1605.578003,653.900085 1619.022095,653.546143 1632.434937,654.039795 
	C1639.858154,654.313049 1643.900024,659.520508 1644.111572,667.057983 
	C1644.162964,668.887451 1644.119263,670.719604 1644.119385,673.043091 
M1606.288086,700.361572 
	C1606.288086,702.462708 1606.288086,704.563782 1606.288086,706.892212 
	C1613.052612,706.892212 1619.214355,707.124878 1625.333862,706.719299 
	C1626.762573,706.624573 1629.184692,704.395630 1629.220703,703.095093 
	C1629.530029,691.946899 1629.494507,680.784241 1629.249756,669.632812 
	C1629.223511,668.438721 1627.253296,666.334900 1626.101929,666.276123 
	C1619.668823,665.947327 1613.210449,666.117981 1606.288086,666.117981 
	C1606.288086,677.497864 1606.288086,688.444214 1606.288086,700.361572 
z"/>
<path fill="#F8F8F8" opacity="1.000000" stroke="none" 
	d="
M494.150360,695.999878 
	C494.150360,681.702454 494.150360,667.905090 494.150360,653.893311 
	C499.133057,653.893311 503.746674,653.893311 508.828217,653.893311 
	C508.828217,662.455261 508.828217,670.869385 508.828217,679.474854 
	C517.386108,679.474854 525.477966,679.474854 533.943115,679.474854 
	C533.943115,670.903320 533.943115,662.454712 533.943115,653.893555 
	C538.927246,653.893555 543.538025,653.893555 548.392944,653.893555 
	C548.392944,675.682678 548.392944,697.253052 548.392944,719.074585 
	C543.629028,719.074585 539.022583,719.074585 533.941040,719.074585 
	C533.941040,710.137451 533.941040,701.233276 533.941040,692.095520 
	C525.406433,692.095520 517.343262,692.095520 508.972595,692.095520 
	C508.972595,701.047180 508.972595,709.829590 508.972595,718.966492 
	C503.958191,718.966492 499.241425,718.966492 494.150360,718.966492 
	C494.150360,711.429321 494.150360,703.964600 494.150360,695.999878 
z"/>
<path fill="#F9F9F9" opacity="1.000000" stroke="none" 
	d="
M700.172729,719.318970 
	C697.403015,719.318970 695.109192,719.318970 692.594360,719.318970 
	C692.594360,697.298279 692.594360,675.742859 692.594360,653.934082 
	C708.354553,653.934082 723.945801,653.934082 739.832947,653.934082 
	C739.832947,657.836487 739.832947,661.722290 739.832947,665.976685 
	C729.073425,665.976685 718.324463,665.976685 707.212341,665.976685 
	C707.212341,670.694092 707.212341,675.055542 707.212341,679.704956 
	C715.988281,679.704956 724.614441,679.704956 733.540527,679.704956 
	C733.540527,683.699219 733.540527,687.425354 733.540527,691.649292 
	C724.846985,691.649292 716.117249,691.649292 707.121277,691.649292 
	C707.121277,696.870850 707.121277,701.605713 707.121277,706.684448 
	C717.919495,706.684448 728.679749,706.684448 739.782959,706.684448 
	C739.782959,710.912170 739.782959,714.809631 739.782959,719.318970 
	C726.807373,719.318970 713.728027,719.318970 700.172729,719.318970 
z"/>
<path fill="#F8F8F8" opacity="1.000000" stroke="none" 
	d="
M1173.708252,656.654663 
	C1174.552368,656.045105 1175.059082,655.492126 1175.668091,655.334900 
	C1188.586182,652.002930 1201.619141,652.266907 1214.502319,655.082703 
	C1218.799316,656.021790 1221.036865,660.125061 1221.263062,664.669373 
	C1221.459961,668.624451 1221.304077,672.597046 1221.304077,676.700562 
	C1216.396606,676.700562 1211.948608,676.700562 1207.597412,676.700562 
	C1207.326782,676.296753 1207.016113,676.046997 1207.002197,675.781677 
	C1206.469971,665.636169 1206.473633,665.629150 1196.033813,665.637695 
	C1182.249023,665.648987 1184.238159,664.578552 1184.141113,677.732361 
	C1184.080933,685.888794 1184.247559,694.048523 1184.076904,702.201843 
	C1184.000000,705.871033 1185.368042,707.368164 1189.043213,707.192383 
	C1192.863159,707.009644 1196.728638,706.849609 1200.520142,707.225098 
	C1205.713013,707.739319 1207.544556,705.580750 1206.895508,700.647400 
	C1206.725220,699.352966 1206.869995,698.017090 1206.869995,696.425964 
	C1211.706543,696.425964 1216.286133,696.425964 1221.217896,696.425964 
	C1221.217896,700.782715 1221.531738,705.109436 1221.137817,709.370789 
	C1220.653442,714.610413 1216.298340,718.910767 1210.157959,719.226440 
	C1200.375122,719.729309 1190.514648,719.838318 1180.748779,719.187500 
	C1173.399780,718.697693 1169.717041,713.716492 1169.690674,706.270752 
	C1169.644165,693.120056 1169.430542,679.961121 1169.848389,666.823547 
	C1169.954712,663.479797 1172.171509,660.203125 1173.708252,656.654663 
z"/>
<path fill="#F6F6F6" opacity="1.000000" stroke="none" 
	d="
M830.035278,675.720215 
	C825.376343,676.501099 820.802246,676.813232 816.441711,677.110840 
	C816.057434,676.340698 815.789062,676.049866 815.781982,675.752808 
	C815.531372,665.297668 816.995605,665.551453 804.692139,665.640808 
	C790.642639,665.742920 793.034729,664.403564 792.873291,677.681396 
	C792.774109,685.836609 792.971924,693.996521 792.801270,702.149414 
	C792.726135,705.739014 793.878601,707.399475 797.659424,707.191101 
	C801.476379,706.980713 805.313904,707.151245 809.142456,707.143250 
	C815.321655,707.130249 815.582336,706.871887 815.667419,700.694946 
	C815.685486,699.382019 815.670105,698.068665 815.670105,696.450989 
	C820.513489,696.450989 825.053589,696.450989 830.060425,696.450989 
	C830.060425,700.446899 830.322388,704.407410 829.998657,708.319458 
	C829.518372,714.123352 825.494385,718.740417 819.349487,719.082886 
	C809.249512,719.645935 799.062683,719.738281 788.975647,719.071899 
	C781.970886,718.609131 778.230530,713.544373 778.175659,706.378601 
	C778.074951,693.229187 778.085693,680.078064 778.167603,666.928345 
	C778.217834,658.865234 782.932251,653.742798 791.072266,653.436890 
	C799.715820,653.112122 808.387573,653.153442 817.034851,653.424927 
	C825.339661,653.685608 830.023865,658.870483 830.130188,667.261597 
	C830.163940,669.924438 830.125488,672.588135 830.035278,675.720215 
z"/>
<path fill="#F9F9F9" opacity="1.000000" stroke="none" 
	d="
M1142.812378,705.754822 
	C1135.231567,705.114075 1127.809692,704.801147 1120.386963,704.776978 
	C1119.583618,704.774353 1118.433472,706.312439 1118.029541,707.361267 
	C1116.544189,711.218445 1115.305542,715.170715 1113.956543,719.139221 
	C1108.976685,719.139221 1104.226685,719.139221 1098.884766,719.139221 
	C1106.778809,697.148438 1114.547607,675.506348 1122.382202,653.680969 
	C1127.426880,653.680969 1132.240723,653.544617 1137.036133,653.782837 
	C1138.148315,653.838074 1139.815796,654.944519 1140.183594,655.949463 
	C1147.819214,676.810608 1155.303833,697.726868 1162.964478,719.039185 
	C1157.557129,719.039185 1152.635742,719.039185 1147.257446,719.039185 
	C1145.887329,714.924438 1144.429199,710.545471 1142.812378,705.754822 
M1131.577759,670.380188 
	C1131.070801,670.403931 1130.172729,670.295288 1130.113403,670.470459 
	C1127.726440,677.527222 1125.415039,684.609558 1123.041138,691.849976 
	C1128.293823,691.849976 1133.152710,691.849976 1138.418823,691.849976 
	C1136.136963,684.640320 1133.987671,677.849548 1131.577759,670.380188 
z"/>
<path fill="#F9F9F9" opacity="1.000000" stroke="none" 
	d="
M227.860687,654.717041 
	C233.271133,654.127136 238.531113,653.759705 243.784470,653.837952 
	C244.673248,653.851196 245.912354,655.644775 246.350540,656.848450 
	C253.811050,677.341919 261.170624,697.872192 268.726532,718.878174 
	C263.452850,718.878174 258.437897,718.878174 253.005661,718.878174 
	C251.914810,715.558289 250.499969,711.996338 249.608231,708.307861 
	C248.869049,705.250244 247.271027,704.442261 244.303833,704.568481 
	C238.980209,704.794861 233.631424,704.815125 228.310333,704.561279 
	C225.391602,704.422058 224.171616,705.522766 223.447311,708.204773 
	C222.454712,711.880005 221.061127,715.447021 219.810913,719.144592 
	C214.853241,719.144592 210.094116,719.144592 204.696014,719.144592 
	C212.451691,697.556213 220.079834,676.322815 227.860687,654.717041 
M238.827652,674.745972 
	C238.160172,672.906372 237.492706,671.066833 236.543518,668.450806 
	C233.823288,676.705261 231.362564,684.172180 228.818817,691.891113 
	C234.125595,691.891113 238.980988,691.891113 243.858215,691.891113 
	C243.858215,691.276672 243.940048,690.923584 243.846039,690.625916 
	C242.252350,685.580322 240.636810,680.541687 238.827652,674.745972 
z"/>
<path fill="#FDFDFD" opacity="1.000000" stroke="none" 
	d="
M340.693909,685.999756 
	C340.693878,675.054077 340.693878,664.608337 340.693878,653.930542 
	C356.701813,653.930542 372.286957,653.930542 388.247437,653.930542 
	C388.247437,657.826416 388.247437,661.694153 388.247437,665.941956 
	C377.481384,665.941956 366.722504,665.941956 355.636108,665.941956 
	C355.636108,670.536743 355.636108,674.772522 355.636108,679.560730 
	C364.277130,679.560730 372.988983,679.560730 381.903198,679.560730 
	C381.903198,683.854126 381.903198,687.601440 381.903198,691.727173 
	C373.129425,691.727173 364.526154,691.727173 355.616699,691.727173 
	C355.616699,696.831299 355.616699,701.567932 355.616699,706.706116 
	C366.383270,706.706116 377.137421,706.706116 388.254089,706.706116 
	C388.254089,710.967651 388.254089,714.841858 388.254089,719.015259 
	C372.644287,719.015259 357.058197,719.015259 340.693909,719.015259 
	C340.693909,708.301697 340.693909,697.400757 340.693909,685.999756 
z"/>
<path fill="#F8F8F8" opacity="1.000000" stroke="none" 
	d="
M85.988213,674.000183 
	C85.988213,667.017334 85.988213,660.534424 85.988213,653.760620 
	C101.951553,653.760620 117.690704,653.760620 133.807541,653.760620 
	C133.807541,657.621948 133.807541,661.523438 133.807541,665.991577 
	C123.254852,665.991577 112.387558,665.991577 101.272362,665.991577 
	C101.272362,670.803223 101.272362,675.066284 101.272362,679.814819 
	C109.845215,679.814819 118.569923,679.814819 127.567848,679.814819 
	C127.567848,684.186218 127.567848,688.080139 127.567848,692.327515 
	C118.860039,692.327515 110.246971,692.327515 101.216675,692.327515 
	C101.216675,701.409912 101.216675,710.158691 101.216675,719.216064 
	C96.069229,719.216064 91.332993,719.216064 85.988213,719.216064 
	C85.988213,704.309204 85.988213,689.404663 85.988213,674.000183 
z"/>
<path fill="#FBFBFB" opacity="1.000000" stroke="none" 
	d="
M575.873413,689.191040 
	C569.709229,677.417053 563.690063,665.986206 557.220520,653.700195 
	C562.594299,653.700195 567.174072,653.483521 571.706726,653.849487 
	C572.868591,653.943359 574.238403,655.694458 574.904968,656.995483 
	C578.904480,664.802307 582.726746,672.700012 587.084534,681.532349 
	C591.098145,673.431091 594.955200,666.209473 598.259888,658.743408 
	C599.973145,654.872803 602.061035,653.007568 606.451721,653.607178 
	C609.545898,654.029724 612.744202,653.689026 616.791565,653.689026 
	C615.769592,655.781494 615.054504,657.343750 614.257080,658.862732 
	C608.693481,669.460571 603.228699,680.112793 597.480835,690.609924 
	C595.175354,694.820251 593.922180,699.015625 594.239502,703.863037 
	C594.562927,708.804626 594.310974,713.783936 594.310974,719.025818 
	C589.437744,719.025818 584.888489,719.025818 580.241394,719.025818 
	C578.493591,709.189209 582.836121,698.542297 575.873413,689.191040 
z"/>
<path fill="#F6F6F6" opacity="1.000000" stroke="none" 
	d="
M1237.057983,665.854919 
	C1233.943237,665.854919 1231.315552,665.854919 1228.423828,665.854919 
	C1228.423828,661.667603 1228.423828,657.909485 1228.423828,653.908569 
	C1245.680786,653.908569 1262.944702,653.908569 1280.532349,653.908569 
	C1280.532349,657.669922 1280.532349,661.395691 1280.532349,665.624023 
	C1274.561523,665.624023 1268.493530,665.624023 1262.027222,665.624023 
	C1262.027222,683.683228 1262.027222,701.253235 1262.027222,719.075195 
	C1257.029297,719.075195 1252.440186,719.075195 1247.544434,719.075195 
	C1247.544434,701.471741 1247.544434,684.047852 1247.544434,665.854919 
	C1244.019897,665.854919 1240.782349,665.854919 1237.057983,665.854919 
z"/>
<path fill="#F6F6F6" opacity="1.000000" stroke="none" 
	d="
M985.075439,653.670044 
	C999.704224,653.670105 1013.843079,653.670105 1028.312622,653.670105 
	C1028.312622,657.699158 1028.312622,661.427124 1028.312622,665.681763 
	C1022.292908,665.681763 1016.232910,665.681763 1009.699707,665.681763 
	C1009.699707,683.745300 1009.699707,701.297546 1009.699707,719.086426 
	C1004.622864,719.086426 1000.032471,719.086426 995.186768,719.086426 
	C995.186768,701.397400 995.186768,683.942810 995.186768,665.945984 
	C988.731323,665.945984 982.507935,665.945984 976.083984,665.945984 
	C976.083984,661.634766 976.083984,657.863953 976.083984,653.670044 
	C978.981140,653.670044 981.783386,653.670044 985.075439,653.670044 
z"/>
<path fill="#F6F6F6" opacity="1.000000" stroke="none" 
	d="
M1547.355591,683.000488 
	C1547.355591,677.173950 1547.355591,671.847351 1547.355591,666.037598 
	C1541.156860,666.037598 1535.072632,666.037598 1528.676758,666.037598 
	C1528.676758,661.803223 1528.676758,658.043701 1528.676758,653.974609 
	C1546.004395,653.974609 1563.410034,653.974609 1580.916016,653.974609 
	C1580.916016,657.865295 1580.916016,661.635803 1580.916016,665.769714 
	C1574.610718,665.769714 1568.513062,665.769714 1561.994507,665.769714 
	C1561.994507,683.702148 1561.994507,701.276611 1561.994507,719.088257 
	C1556.974854,719.088257 1552.384521,719.088257 1547.355591,719.088257 
	C1547.355591,707.068298 1547.355591,695.284424 1547.355591,683.000488 
z"/>
<path fill="#FEFEFE" opacity="1.000000" stroke="none" 
	d="
M1486.698853,706.996094 
	C1486.698853,689.052673 1486.698853,671.608093 1486.698853,653.932739 
	C1491.558716,653.932739 1496.003174,653.932739 1500.991699,653.932739 
	C1500.991699,671.353271 1500.991699,688.900818 1500.991699,706.826355 
	C1511.446655,706.826355 1521.370361,706.826355 1531.560059,706.826355 
	C1531.560059,711.106506 1531.560059,715.002441 1531.560059,719.072815 
	C1516.609741,719.072815 1501.872070,719.072815 1486.698853,719.072815 
	C1486.698853,715.070801 1486.698853,711.282837 1486.698853,706.996094 
z"/>
<path fill="#FFFFFF" opacity="1.000000" stroke="none" 
	d="
M1306.113892,679.000000 
	C1306.113892,692.606079 1306.113892,705.712219 1306.113892,719.057007 
	C1301.324951,719.057007 1296.896606,719.057007 1292.083008,719.057007 
	C1292.083008,697.519897 1292.083008,675.862427 1292.083008,653.951782 
	C1296.516357,653.951782 1300.952881,653.951782 1306.113892,653.951782 
	C1306.113892,662.023926 1306.113892,670.261963 1306.113892,679.000000 
z"/>
<path fill="#FF0308" opacity="1.000000" stroke="none" 
	d="
M621.000000,358.826477 
	C590.548584,358.826477 560.597107,358.826477 530.206055,358.826477 
	C530.206055,422.712677 530.206055,486.116119 530.206055,549.756104 
	C500.017883,549.756104 470.271149,549.756104 440.264679,549.756104 
	C440.264679,395.613495 440.264679,241.561737 440.264679,87.257736 
	C470.090515,87.257736 499.832611,87.257736 530.036133,87.257736 
	C530.036133,150.712296 530.036133,214.104340 530.036133,277.834473 
	C600.395874,277.834473 670.296204,277.834473 740.621216,277.834473 
	C740.621216,214.471573 740.621216,151.056717 740.621216,87.324165 
	C770.794434,87.324165 800.546814,87.324165 830.647339,87.324165 
	C830.647339,241.209625 830.647339,395.261566 830.647339,549.654114 
	C800.964111,549.654114 771.099426,549.654114 740.791138,549.654114 
	C740.791138,486.113495 740.791138,422.709839 740.791138,358.826508 
	C700.733765,358.826508 661.116882,358.826508 621.000000,358.826477 
z"/>
<path fill="#FF0409" opacity="1.000000" stroke="none" 
	d="
M963.115234,102.073547 
	C982.859619,91.839676 1003.492126,86.949638 1025.364868,86.984123 
	C1069.190796,87.053207 1113.016968,86.972359 1156.843018,87.012444 
	C1220.134766,87.070320 1277.256714,137.308548 1284.989746,200.134796 
	C1286.523438,212.595490 1286.381348,225.262436 1287.028931,238.171326 
	C1255.551025,238.171326 1225.145508,238.171326 1194.172241,238.171326 
	C1194.172241,231.899612 1194.175293,225.776611 1194.171875,219.653625 
	C1194.151367,183.235138 1166.787109,155.833176 1130.429077,155.827667 
	C1104.766724,155.823776 1079.104248,155.796173 1053.441895,155.835770 
	C1019.772217,155.887741 991.846069,183.904221 991.834106,217.658936 
	C991.811096,282.814758 991.808899,347.970551 991.835327,413.126373 
	C991.848938,446.780823 1019.920471,474.933868 1053.511841,474.995239 
	C1079.507446,475.042725 1105.503174,475.011932 1131.498901,475.002960 
	C1165.862793,474.991089 1193.807983,447.371277 1194.153320,413.001404 
	C1194.268555,401.528259 1194.171509,390.052948 1194.171509,378.212952 
	C1224.997192,378.212952 1255.525635,378.212952 1286.301147,378.212952 
	C1286.476440,410.895660 1289.452515,443.751068 1273.958862,474.257904 
	C1252.002441,517.489929 1217.216797,542.806152 1168.952393,549.067688 
	C1163.031738,549.835754 1156.995361,549.946838 1151.011841,549.957092 
	C1108.685669,550.029175 1066.359497,549.998718 1024.033203,549.994690 
	C958.821167,549.988525 903.030640,501.527618 893.912537,436.784851 
	C892.848999,429.233368 892.261719,421.549896 892.246094,413.925995 
	C892.116211,350.436829 891.983704,286.946564 892.230286,223.458099 
	C892.439392,169.623505 915.861023,129.013641 963.115234,102.073547 
z"/>
<path fill="#FF0308" opacity="1.000000" stroke="none" 
	d="
M213.999786,167.464539 
	C197.875549,167.464630 182.251328,167.464630 166.406952,167.464630 
	C166.406952,204.582916 166.406952,241.144424 166.406952,278.181396 
	C238.397766,278.181396 310.136475,278.181396 382.169067,278.181396 
	C382.169067,305.213989 382.169067,331.771179 382.169067,358.799591 
	C310.159576,358.799591 238.418747,358.799591 166.245850,358.799591 
	C166.245850,422.671539 166.245850,486.074829 166.245850,549.735352 
	C136.066574,549.735352 106.319916,549.735352 76.289230,549.735352 
	C76.289230,395.668304 76.289230,241.623459 76.289230,87.292213 
	C178.166168,87.292213 280.050537,87.292213 382.200348,87.292213 
	C382.200348,113.800400 382.200348,140.216202 382.200348,167.464462 
	C326.298096,167.464462 270.398926,167.464462 213.999786,167.464539 
z"/>
<path fill="#FF0308" opacity="1.000000" stroke="none" 
	d="
M1341.854004,508.999939 
	C1341.854004,367.720184 1341.854004,226.940460 1341.854004,85.853470 
	C1371.971191,85.853470 1401.709961,85.853470 1431.894287,85.853470 
	C1431.894287,213.044556 1431.894287,340.277405 1431.894287,467.858154 
	C1502.929077,467.858154 1573.521118,467.858154 1644.465942,467.858154 
	C1644.465942,494.750793 1644.465942,521.296753 1644.465942,548.149170 
	C1543.761719,548.149170 1443.173218,548.149170 1341.854004,548.149170 
	C1341.854004,535.348083 1341.854004,522.424011 1341.854004,508.999939 
z"/>
<path fill="#080808" opacity="1.000000" stroke="none" 
	d="
M1055.262085,666.144836 
	C1061.052979,666.114868 1066.367065,666.236938 1071.671753,666.068054 
	C1075.121826,665.958191 1076.442383,667.404907 1076.416382,670.766785 
	C1076.308472,684.665710 1077.567993,682.569092 1064.979248,682.698608 
	C1061.515015,682.734253 1058.050171,682.704041 1053.476196,682.704041 
	C1053.927734,676.984436 1054.354492,671.578979 1055.262085,666.144836 
z"/>
<path fill="#090909" opacity="1.000000" stroke="none" 
	d="
M182.173798,672.166626 
	C182.198456,684.105896 182.835541,682.644104 171.921768,682.702332 
	C167.971283,682.723450 164.020599,682.705750 159.608063,682.705750 
	C159.608063,680.438599 159.608063,678.648743 159.608063,676.858887 
	C159.608063,673.415955 159.608063,669.973022 159.608063,666.114624 
	C166.192108,666.114624 172.301895,666.116821 178.411682,666.113953 
	C182.439301,666.112061 182.194016,668.980530 182.173798,672.166626 
z"/>
<path fill="#0B0B0B" opacity="1.000000" stroke="none" 
	d="
M431.798309,666.103882 
	C437.186737,665.348938 438.638641,667.514038 438.497528,672.324402 
	C438.150452,684.154907 439.522919,682.627808 427.984863,682.710388 
	C424.188019,682.737610 420.390808,682.714722 416.354492,682.714722 
	C416.354492,677.083557 416.354492,671.846375 416.354492,666.103760 
	C421.424438,666.103760 426.373016,666.103760 431.798309,666.103882 
z"/>
<path fill="#050505" opacity="1.000000" stroke="none" 
	d="
M856.667969,705.200500 
	C856.474121,693.310486 856.490906,681.841125 856.351440,670.373779 
	C856.313721,667.271790 857.273071,665.741150 860.617188,665.847595 
	C865.599548,666.006226 870.591370,665.940613 875.577759,665.870300 
	C878.732300,665.825806 880.051758,667.238892 880.029053,670.396423 
	C879.952393,681.035645 879.953613,691.676086 880.026855,702.315369 
	C880.049988,705.670044 878.720093,707.157776 875.266479,707.041565 
	C870.450867,706.879517 865.622314,707.098938 860.806641,706.937866 
	C859.464478,706.892883 858.148071,706.081604 856.667969,705.200500 
z"/>
<path fill="#040404" opacity="1.000000" stroke="none" 
	d="
M663.391724,677.042908 
	C663.391663,685.683716 663.280334,693.834229 663.441589,701.979370 
	C663.514526,705.662109 662.073120,707.043396 658.433716,706.936401 
	C652.489319,706.761597 646.536072,706.889160 640.352478,706.889160 
	C640.352478,693.278320 640.352478,680.041382 640.352478,666.152649 
	C647.028320,666.152649 653.776917,666.012024 660.506714,666.304871 
	C661.511169,666.348633 662.997437,668.312256 663.257874,669.591919 
	C663.712952,671.827881 663.389160,674.222351 663.391724,677.042908 
z"/>
<path fill="#070707" opacity="1.000000" stroke="none" 
	d="
M1606.288086,699.876038 
	C1606.288086,688.444214 1606.288086,677.497864 1606.288086,666.117981 
	C1613.210449,666.117981 1619.668823,665.947327 1626.101929,666.276123 
	C1627.253296,666.334900 1629.223511,668.438721 1629.249756,669.632812 
	C1629.494507,680.784241 1629.530029,691.946899 1629.220703,703.095093 
	C1629.184692,704.395630 1626.762573,706.624573 1625.333862,706.719299 
	C1619.214355,707.124878 1613.052612,706.892212 1606.288086,706.892212 
	C1606.288086,704.563782 1606.288086,702.462708 1606.288086,699.876038 
z"/>
<path fill="#0C0C0C" opacity="1.000000" stroke="none" 
	d="
M1131.708130,670.719482 
	C1133.987671,677.849548 1136.136963,684.640320 1138.418823,691.849976 
	C1133.152710,691.849976 1128.293823,691.849976 1123.041138,691.849976 
	C1125.415039,684.609558 1127.726440,677.527222 1130.113403,670.470459 
	C1130.172729,670.295288 1131.070801,670.403931 1131.708130,670.719482 
z"/>
<path fill="#0A0A0A" opacity="1.000000" stroke="none" 
	d="
M238.926880,675.123718 
	C240.636810,680.541687 242.252350,685.580322 243.846039,690.625916 
	C243.940048,690.923584 243.858215,691.276672 243.858215,691.891113 
	C238.980988,691.891113 234.125595,691.891113 228.818817,691.891113 
	C231.362564,684.172180 233.823288,676.705261 236.543518,668.450806 
	C237.492706,671.066833 238.160172,672.906372 238.926880,675.123718 
z"/>
</svg>