<svg xmlns="http://www.w3.org/2000/svg" 
    viewBox="-34.155 -20.475 296.01 122.85">
    <path d="M211.2 14.9h16.5v31.2h-16.5z" fill="#95D600" />
    <path d="M184.2 0h27.4v16.5h-27.4z" fill="#57C1E8" />
    <path
        d="M211.2 0h16.5v16.5h-16.5zm-26.5 39.5v-5.9h-10.3v29.2h10.3v-9.1c0-6.8 3-9.8 8.4-9.8h.9V33.1c-4.9-.2-7.6 2.4-9.3 6.4zM14.1 25H.1v37.8h13.8c13.1 0 20.7-8.1 20.7-19v-.1c0-10.9-7.5-18.7-20.5-18.7zm10.2 18.9c0 6.1-4 9.6-10 9.6h-4.1V34.3h4.1c6 0 10 3.5 10 9.6zM52.1 33C42.8 33 36 40 36 48.3v.1c0 8.3 6.7 15.2 15.9 15.2 9.3 0 16.1-7 16.1-15.3v-.1C68 39.8 61.4 33 52.1 33zm6 15.4c0 3.5-2.4 6.5-6 6.5s-6.2-3-6.2-6.6v-.1c0-3.5 2.4-6.5 6-6.5s6.2 3 6.2 6.6zm72.7-15.5c-4.2 0-6.9 2.3-8.7 4.8v-4.1h-20.3l-3.9 14.8-4.5-14.9h-8.5l-4.5 14.8-3.8-14.7h-10L75.3 63h8.8L89 47.8 93.8 63h8.9l6.4-20.8h2.8v20.6h10.3V47c0-3.2 1.8-4.9 4.3-4.9 2.4 0 4.1 1.7 4.1 4.9v15.8h10.3V43.7c-.1-6.7-3.9-10.8-10.1-10.8zm26.7 0c-8.6 0-14.7 6.8-14.7 15.3v.1c0 9.1 6.5 15.2 15.7 15.2 5.8 0 9.9-2.4 12.7-5.9l-5.7-4.7c-2.1 2.1-4.1 3-6.5 3-3.2 0-5.5-1.6-6.3-4.8h19.6c.1-.7.1-1.5.1-2.1-.2-8.7-4.8-16.1-14.9-16.1zm-5.1 12.9c.5-3.2 2.4-5.3 5.1-5.3 2.8 0 4.7 2.1 5.1 5.3zM.5 74.4V79H0V68.9h3.5c1.9 0 3.1 1 3.1 2.7 0 1.6-1 2.6-2.6 2.7l3 4.8h-.5l-3.1-4.6H.5zm0-.4h2.9c1.7 0 2.6-.9 2.6-2.3 0-1.5-.9-2.3-2.6-2.3H.5zM14 77c-.3 1.3-1.3 2.2-2.7 2.2-1.9 0-3.2-1.5-3.2-3.8 0-2.2 1.2-3.8 3.1-3.8 1.9 0 2.9 1.5 2.9 3.6v.2H8.6c0 2.1 1.1 3.4 2.7 3.4 1.1 0 2-.7 2.2-1.7h.5zm-5.4-2.1h5c0-1.4-.7-2.8-2.4-2.8-1.4 0-2.4 1.1-2.6 2.8zm7.9 4.2H16V68.4h.5zm6.7 0v-.8c-.3.4-1.2.9-2.1.9-1.5 0-2.7-.9-2.7-2.2 0-1.3 1.2-2.2 2.7-2.2.9 0 1.8.5 2.1.9v-1.6c0-1.2-.7-2-2-2-1 0-1.7.4-2 1.4h-.5c.3-1.2 1.3-1.9 2.5-1.9 1.5 0 2.5 1 2.5 2.4v5h-.5zm0-2.7c-.2-.7-1.1-1.2-2.1-1.2-1.2 0-2.2.6-2.2 1.7 0 1.2 1 1.7 2.2 1.7 1 0 1.9-.5 2.1-1.2zm3.2-4.2h-1.3v-.5h1.3v-1.8h.5v1.8h2v.5h-2v5.2c0 .9.4 1.3 1.1 1.3.4 0 .7-.1 1-.3v.6c-.3.1-.7.2-1 .2-1 0-1.6-.5-1.6-1.7zm4.6-2.3c-.2 0-.4-.2-.4-.4s.1-.4.4-.4c.2 0 .4.2.4.4s-.2.4-.4.4zm.2 9.2h-.5v-7.3h.5zm5.1.1c-1.9 0-3.1-1.5-3.1-3.8s1.3-3.8 3.1-3.8 3.1 1.5 3.1 3.8-1.2 3.8-3.1 3.8zm0-7.1c-1.6 0-2.6 1.3-2.6 3.3 0 2 1.1 3.3 2.6 3.3 1.6 0 2.6-1.3 2.6-3.3 0-2-1-3.3-2.6-3.3zm5.1-.4h.5V73c.5-.8 1.4-1.5 2.5-1.5 1.7 0 2.5 1 2.5 2.6V79h-.5v-4.8c0-1.2-.6-2.2-2.1-2.2-1.1 0-2 .8-2.5 1.7v5.2h-.5v-7.2zm7.6 5.5c.3 1 1.2 1.5 2.3 1.5 1.1 0 2-.5 2-1.5 0-.7-.5-1.2-1.5-1.5l-1.3-.4c-1-.3-1.7-.8-1.7-1.8 0-1.3 1.1-1.9 2.4-1.9 1.4 0 2.4.7 2.6 1.9h-.5c-.3-1-1-1.5-2.1-1.5-1 0-1.9.5-1.9 1.4 0 .8.5 1.1 1.5 1.4l1.2.3c1.3.4 1.8 1.1 1.8 2 0 1.3-1.1 2-2.5 2s-2.5-.7-2.8-1.9zm6.6-8.8h.5v4.7c.5-.8 1.4-1.5 2.5-1.5 1.7 0 2.5 1 2.5 2.6v4.9h-.5v-4.8c0-1.2-.6-2.2-2.1-2.2-1.1 0-2 .8-2.5 1.7V79h-.5V68.4zm8.2 1.5c-.2 0-.4-.2-.4-.4s.1-.4.4-.4c.2 0 .4.2.4.4-.1.2-.2.4-.4.4zm.2 9.2h-.5v-7.3h.5zm3 2.8h-.5V71.7h.5V73c.4-.7 1.4-1.4 2.4-1.4 2.2 0 3.1 1.8 3.1 3.8 0 2-1 3.8-3.1 3.8-1.1 0-2-.7-2.4-1.4zm0-4.8c.6 1.1 1.5 1.6 2.4 1.6 1.6 0 2.6-1.4 2.6-3.3s-1-3.3-2.6-3.3c-1 0-1.9.6-2.4 1.6zm7.2.1c.3 1 1.2 1.5 2.3 1.5 1.1 0 2-.5 2-1.5 0-.7-.5-1.2-1.5-1.5l-1.3-.4c-1-.3-1.7-.8-1.7-1.8 0-1.3 1.1-1.9 2.4-1.9 1.4 0 2.4.7 2.6 1.9h-.5c-.3-1-1-1.5-2.1-1.5-1 0-1.9.5-1.9 1.4 0 .8.5 1.1 1.5 1.4l1.2.3c1.3.4 1.8 1.1 1.8 2 0 1.3-1.1 2-2.5 2s-2.5-.7-2.8-1.9zm12.9-5.6c1.5 0 2.4.9 2.7 2.2h-.5c-.2-1.1-1-1.7-2.2-1.7-1.6 0-2.7 1.3-2.7 3.3 0 2 1.1 3.3 2.7 3.3 1.2 0 1.9-.7 2.2-1.7h.5c-.3 1.3-1.2 2.2-2.7 2.2-1.9 0-3.2-1.5-3.2-3.8s1.3-3.8 3.2-3.8zm7.8.6c-.2 0-.3-.1-.6-.1-1 0-1.7.7-2.1 1.7v5.3h-.5v-7.3h.5v1.3c.4-.8 1.1-1.5 2.1-1.5.2 0 .4 0 .6.1zm6.5 4.8c-.3 1.3-1.3 2.2-2.7 2.2-1.9 0-3.2-1.5-3.2-3.8 0-2.2 1.2-3.8 3.1-3.8 1.9 0 2.9 1.5 2.9 3.6v.2H96c0 2.1 1.1 3.4 2.7 3.4 1.1 0 2-.7 2.2-1.7h.5zM96 74.9h5c0-1.4-.7-2.8-2.4-2.8-1.4 0-2.4 1.1-2.6 2.8zm11.8 4.2v-.8c-.3.4-1.2.9-2.1.9-1.5 0-2.7-.9-2.7-2.2 0-1.3 1.2-2.2 2.7-2.2.9 0 1.8.5 2.1.9v-1.6c0-1.2-.7-2-2-2-1 0-1.7.4-2 1.4h-.5c.3-1.2 1.3-1.9 2.5-1.9 1.5 0 2.5 1 2.5 2.4v5h-.5zm0-2.7c-.2-.7-1.1-1.2-2.1-1.2-1.2 0-2.2.6-2.2 1.7 0 1.2 1 1.7 2.2 1.7 1 0 1.9-.5 2.1-1.2zm3.2-4.2h-1.3v-.5h1.3v-1.8h.5v1.8h2v.5h-2v5.2c0 .9.4 1.3 1.1 1.3.4 0 .7-.1 1-.3v.6c-.3.1-.7.2-1 .2-1 0-1.6-.5-1.6-1.7zm4.6-2.3c-.2 0-.4-.2-.4-.4s.1-.4.4-.4c.2 0 .4.2.4.4s-.2.4-.4.4zm.3 9.2h-.5v-7.3h.5zm2.4-7.4h.5V73c.5-.8 1.4-1.5 2.5-1.5 1.7 0 2.5 1 2.5 2.6V79h-.5v-4.8c0-1.2-.6-2.2-2.1-2.2-1.1 0-2 .8-2.5 1.7v5.2h-.5v-7.2zm12.7 5.9c-.4.7-1.3 1.4-2.4 1.4-2.1 0-3.1-1.7-3.1-3.7s.9-3.7 3.1-3.7c1.1 0 2 .7 2.4 1.4v-1.3h.5v6.8c0 2.2-1.2 3.4-2.9 3.4-1.6 0-2.6-.8-2.9-2.1h.5c.3 1.1 1.2 1.6 2.4 1.6 1.5 0 2.4-1 2.4-3zm0-3.9c-.6-1.1-1.4-1.6-2.4-1.6-1.6 0-2.6 1.3-2.6 3.2 0 1.9.9 3.2 2.6 3.2 1 0 1.8-.6 2.4-1.6zm6.3 3.5c.3 1 1.2 1.5 2.3 1.5 1.1 0 2-.5 2-1.5 0-.7-.5-1.2-1.5-1.5l-1.3-.4c-1-.3-1.7-.8-1.7-1.8 0-1.3 1.1-1.9 2.4-1.9 1.4 0 2.4.7 2.6 1.9h-.5c-.3-1-1-1.5-2.1-1.5-1 0-1.9.5-1.9 1.4 0 .8.5 1.1 1.5 1.4l1.2.3c1.3.4 1.8 1.1 1.8 2 0 1.3-1.1 2-2.5 2s-2.5-.7-2.8-1.9zm12 1.9h-.5v-1.3c-.5.8-1.3 1.5-2.5 1.5-1.7 0-2.5-1-2.5-2.6v-4.9h.5v4.8c0 1.2.6 2.2 2.1 2.2 1.1 0 2-.8 2.4-1.7v-5.2h.5zm5-7.5c1.5 0 2.4.9 2.7 2.2h-.5c-.2-1.1-1-1.7-2.2-1.7-1.6 0-2.7 1.3-2.7 3.3 0 2 1.1 3.3 2.7 3.3 1.2 0 1.9-.7 2.2-1.7h.5c-.3 1.3-1.2 2.2-2.7 2.2-1.9 0-3.2-1.5-3.2-3.8s1.2-3.8 3.2-3.8zm7.4 0c1.5 0 2.4.9 2.7 2.2h-.5c-.2-1.1-1-1.7-2.2-1.7-1.6 0-2.7 1.3-2.7 3.3 0 2 1.1 3.3 2.7 3.3 1.2 0 1.9-.7 2.2-1.7h.5c-.3 1.3-1.2 2.2-2.7 2.2-1.9 0-3.2-1.5-3.2-3.8s1.3-3.8 3.2-3.8zm10.1 5.4c-.3 1.3-1.3 2.2-2.7 2.2-1.9 0-3.2-1.5-3.2-3.8 0-2.2 1.2-3.8 3.1-3.8 1.9 0 2.9 1.5 2.9 3.6v.2h-5.5c0 2.1 1.1 3.4 2.7 3.4 1.1 0 2-.7 2.2-1.7h.5zm-5.4-2.1h5c0-1.4-.7-2.8-2.4-2.8-1.4 0-2.4 1.1-2.6 2.8zm7.2 2.3c.3 1 1.2 1.5 2.3 1.5 1.1 0 2-.5 2-1.5 0-.7-.5-1.2-1.5-1.5l-1.3-.4c-1-.3-1.7-.8-1.7-1.8 0-1.3 1.1-1.9 2.4-1.9 1.4 0 2.4.7 2.6 1.9h-.5c-.3-1-1-1.5-2.1-1.5-1 0-1.9.5-1.9 1.4 0 .8.5 1.1 1.5 1.4l1.2.3c1.3.4 1.8 1.1 1.8 2 0 1.3-1.1 2-2.5 2s-2.5-.7-2.8-1.9zm6.5 0c.3 1 1.2 1.5 2.3 1.5 1.1 0 2-.5 2-1.5 0-.7-.5-1.2-1.5-1.5l-1.3-.4c-1-.3-1.7-.8-1.7-1.8 0-1.3 1.1-1.9 2.4-1.9 1.4 0 2.4.7 2.6 1.9h-.5c-.3-1-1-1.5-2.1-1.5-1 0-1.9.5-1.9 1.4 0 .8.5 1.1 1.5 1.4l1.2.3c1.3.4 1.8 1.1 1.8 2 0 1.3-1.1 2-2.5 2s-2.5-.7-2.8-1.9z" />
</svg>