<svg version="1.2" xmlns="http://www.w3.org/2000/svg" viewBox="0 0 114 29">
	<title>WellingtonCityCouncil-svg</title>
	<style>
		.s0 { fill: #000000 } 
	</style>
	<g id="Layer">
		<path id="Layer" class="s0" d="m3.6 26.6c-0.2 0.5-0.4 1.4-0.4 1.4 0 0-0.1-0.9-0.3-1.4l-0.6-2h-1.6v0.4l0.5 0.1v3.4l-0.5 0.1v0.3h1.4v-0.3l-0.4-0.1v-2c0-0.6 0-1.5 0-1.5 0 0 0.2 0.9 0.4 1.4l0.7 2.4h0.6l0.7-2.4c0.2-0.5 0.4-1.4 0.4-1.4h0.1c0 0-0.1 0.9-0.1 1.5v2l-0.4 0.1v0.3h1.8v-0.3l-0.6-0.1v-3.4l0.6-0.1v-0.3h-1.7z"/>
		<path id="Layer" fill-rule="evenodd" class="s0" d="m9.1 27.4h-2.1c0 0.8 0.4 1.1 1 1.1 0.4 0 0.7-0.1 0.9-0.1v0.3c-0.2 0.2-0.5 0.3-1.1 0.3-1.1 0-1.6-0.7-1.6-1.7 0-1 0.7-1.7 1.5-1.7 1 0 1.4 0.6 1.4 1.8zm-0.8-0.4c0-0.7-0.2-1-0.6-1-0.4 0-0.6 0.3-0.7 1z"/>
		<path id="Layer" class="s0" d="m14.8 25.1l0.4-0.1v-0.4h-1.8v0.4l0.5 0.1v1.4h-1.6v-1.4l0.4-0.1v-0.4h-1.8v0.4l0.5 0.1v3.4l-0.5 0.1v0.3h1.8v-0.3l-0.4-0.1v-1.6h1.6v1.6l-0.5 0.1v0.3h1.8v-0.3l-0.5-0.1z"/>
		<path id="Layer" fill-rule="evenodd" class="s0" d="m18.5 27.4h-2.1c0 0.8 0.4 1.1 1 1.1 0.4 0 0.7-0.1 0.9-0.1v0.3c-0.2 0.1-0.6 0.3-1.1 0.3-1.1 0-1.6-0.7-1.6-1.7 0-1 0.7-1.7 1.5-1.7 1 0 1.4 0.6 1.4 1.8zm-0.8-0.4c0-0.7-0.2-1-0.6-1-0.4 0-0.7 0.3-0.7 1z"/>
		<path id="Layer" class="s0" d="m20.8 27.1l0.8-1 0.4-0.1v-0.3h-1.3v0.3l0.4 0.1-0.7 1-0.4 0.1v-3l-1.2 0.1v0.3l0.5 0.1v3.9h-0.4v0.3h1.5v-0.3h-0.4v-1.1h0.3l0.9 1.4h0.9v-0.3l-0.3-0.1z"/>
		<path id="Layer" fill-rule="evenodd" class="s0" d="m25.1 27.4h-2c0 0.8 0.4 1.1 1 1.1 0.4 0 0.7-0.1 0.9-0.1v0.3c-0.2 0.1-0.6 0.3-1.1 0.3-1.1 0-1.6-0.7-1.6-1.7 0-1 0.6-1.7 1.5-1.7 0.9 0 1.3 0.6 1.3 1.8zm-0.8-0.4c0-0.7-0.2-1-0.5-1-0.4 0-0.7 0.3-0.7 1z"/>
		<path id="Layer" class="s0" d="m29.4 26.4l1.1-1.3 0.4-0.1v-0.4h-1.5v0.4l0.5 0.1-1.5 1.9v-1.9l0.4-0.1v-0.4h-1.8v0.4l0.5 0.1v3.4l-0.5 0.1v0.3h1.8v-0.3l-0.4-0.1v-1.1l0.4-0.4 1.2 1.9h1v-0.3l-0.4-0.1z"/>
		<path id="Layer" class="s0" d="m32.5 24.7c0-0.2-0.2-0.4-0.5-0.4-0.2 0-0.4 0.2-0.4 0.4 0 0.3 0.2 0.5 0.4 0.5 0.3 0 0.5-0.2 0.5-0.5z"/>
		<path id="Layer" class="s0" d="m32.4 25.7v-0.1l-1.2 0.2v0.3l0.5 0.1v2.3l-0.4 0.1v0.3h1.5v-0.3l-0.4-0.1z"/>
		<path id="Layer" fill-rule="evenodd" class="s0" d="m38 25.9c0 0.9-0.5 1.3-1.5 1.3-0.3 0-0.4-0.1-0.5-0.1v1.4l0.6 0.1v0.3h-2v-0.3l0.5-0.1v-3.4l-0.5-0.1v-0.4h1.8c1.1 0 1.6 0.5 1.6 1.3zm-0.9 0c0-0.6-0.2-0.8-0.7-0.8h-0.4v1.7c0.1 0 0.2 0 0.4 0 0.5 0 0.8-0.3 0.7-0.9z"/>
		<path id="Layer" class="s0" d="m38.9 24.6h1.8v0.4h-1.8z"/>
		<path id="Layer" fill-rule="evenodd" class="s0" d="m41.4 27.3c0 1.1-0.7 1.7-1.6 1.7-1 0-1.6-0.6-1.6-1.7 0-1 0.7-1.7 1.6-1.7 1 0 1.6 0.7 1.6 1.7zm-0.8 0.1c0-1-0.4-1.3-0.8-1.3-0.4 0-0.8 0.2-0.8 1.2 0 1 0.4 1.3 0.8 1.3 0.4 0 0.7-0.3 0.8-1.2z"/>
		<path id="Layer" class="s0" d="m44.9 26.5c0-0.6-0.4-0.9-0.9-0.9-0.4 0-0.7 0.2-1.1 0.4v-0.3l-0.1-0.1-1 0.2v0.3l0.4 0.1v2.3l-0.4 0.1v0.3h1.5v-0.3l-0.3-0.1v-2.2q0.2-0.1 0.6-0.1c0.3 0 0.5 0.1 0.5 0.5v1.8l-0.4 0.1v0.3h1.6v-0.3l-0.4-0.1v-2z"/>
		<path id="Layer" fill-rule="evenodd" class="s0" d="m48.5 27.3h-2.1c0.1 0.9 0.4 1.2 1 1.2 0.5 0 0.7-0.1 1-0.1v0.3c-0.3 0.1-0.6 0.3-1.2 0.3-1.1 0-1.6-0.7-1.6-1.7 0-1 0.7-1.7 1.5-1.7 1 0 1.4 0.6 1.4 1.7zm-0.8-0.3c0-0.7-0.2-1-0.6-1-0.4 0-0.6 0.3-0.7 1z"/>
		<path id="Layer" class="s0" d="m50.9 27.1l0.7-1 0.4-0.1v-0.3h-1.3v0.3l0.4 0.1-0.7 1-0.3 0.1v-3h-0.1l-1.1 0.1v0.3l0.4 0.1v3.8l-0.4 0.1v0.3h1.6v-0.3h-0.4v-1.1h0.2l0.9 1.4h0.9v-0.3l-0.2-0.1z"/>
		<path id="Layer" fill-rule="evenodd" class="s0" d="m55.2 27.4h-2.1c0 0.8 0.4 1.1 1 1.1 0.4 0 0.7-0.1 0.9-0.1v0.3c-0.2 0.1-0.6 0.3-1.1 0.3-1.1 0-1.6-0.7-1.6-1.7 0-1 0.6-1.7 1.5-1.7 1 0 1.4 0.6 1.4 1.8zm-0.8-0.4c0-0.7-0.2-1-0.6-1-0.4 0-0.7 0.3-0.7 1z"/>
		<path id="Layer" class="s0" d="m10.3 11h-2.6v1l0.6 0.2-0.7 3.5h-0.1l-1.2-4.7h-1.5l-1.2 4.8h-0.1l-0.8-3.6 0.7-0.2v-1h-3.4v1l0.6 0.2 1.5 6h2l1.1-4.2 1.1 4.2h2l1.5-6 0.5-0.2z"/>
		<path id="Layer" fill-rule="evenodd" class="s0" d="m15.4 15.8h-3.3c0.1 0.9 0.6 1.3 1.5 1.3 0.7 0 1.2-0.2 1.6-0.3v1c-0.5 0.3-1.1 0.6-2.2 0.6-1.9 0-2.9-1.1-2.9-2.9 0-1.9 1.1-2.9 2.8-2.9 1.7 0 2.5 0.8 2.5 3.2zm-1.9-1c0-0.9-0.2-1.1-0.7-1.1-0.4 0-0.7 0.2-0.8 1.2z"/>
		<path id="Layer" class="s0" d="m15.9 11.6l0.7 0.2v5.3l-0.6 0.2v0.9h3.1v-0.9l-0.6-0.2v-6.6l-0.2-0.1-2.4 0.3z"/>
		<path id="Layer" class="s0" d="m19.6 17.3v0.9h3.1v-0.9l-0.6-0.2v-6.6l-0.2-0.1-2.4 0.3v0.9l0.7 0.2v5.3z"/>
		<path id="Layer" class="s0" d="m25.7 12.6h-0.2l-2.4 0.2v1l0.7 0.2v3.1l-0.6 0.2v0.9h3v-0.9l-0.5-0.2z"/>
		<path id="Layer" class="s0" d="m23.6 11.3c0 0.6 0.5 0.9 1.1 0.9 0.5 0 1-0.3 1-0.9 0-0.6-0.5-0.9-1-0.9-0.6 0-1.1 0.3-1.1 0.9z"/>
		<path id="Layer" class="s0" d="m32.5 13.9c0-1-0.6-1.3-1.4-1.3-0.8 0-1.3 0.2-1.9 0.6v-0.6h-0.2l-2.3 0.2v1l0.6 0.2v3.2l-0.6 0.1v1h3v-1l-0.5-0.1v-3.1c0.3 0 0.5-0.1 0.7-0.1 0.5 0 0.7 0.1 0.7 0.6v2.6l-0.4 0.1v0.9h2.9v-0.9l-0.6-0.2z"/>
		<path id="Layer" fill-rule="evenodd" class="s0" d="m48.5 15.4c0 1.9-1.2 3-2.8 3-1.9 0-2.9-1.1-2.9-2.9 0-1.9 1.2-2.9 2.9-2.9 1.8 0 2.8 1 2.8 2.8zm-2 0.1c0-1.4-0.3-1.8-0.9-1.8-0.5 0-0.8 0.3-0.8 1.7 0 1.5 0.3 1.8 0.9 1.8 0.5 0 0.8-0.3 0.8-1.7z"/>
		<path id="Layer" class="s0" d="m42.6 18v-0.9q-0.2 0-0.5 0c-0.5 0-0.7-0.1-0.7-0.6v-2.7h1.1v-1.1h-1.1v-1.3h-1.5l-0.2 1.2-0.6 0.3v0.9h0.4v3c0 1.2 0.6 1.5 1.7 1.5 0.6 0.1 1.1-0.1 1.4-0.3z"/>
		<path id="Layer" fill-rule="evenodd" class="s0" d="m35.7 20.4c-1.7 0-2.6-0.6-2.6-1.3 0-0.6 0.5-1 1.2-1.1v-0.1q-0.8-0.2-0.8-0.9c0-0.4 0.4-0.9 0.8-1.2-0.5-0.2-0.8-0.7-0.8-1.4 0-1.2 1-1.8 2.4-1.8q0.7 0 1.2 0.1l1.6-0.2v1.1h-0.5c0.1 0.2 0.2 0.4 0.2 0.7 0 1.2-1 1.9-2.4 1.9q-0.5 0-0.8-0.1-0.1 0.2-0.1 0.3c0 0.2 0.1 0.3 0.4 0.3h1.8c0.9 0 1.7 0.4 1.7 1.6 0 1.1-1 2.1-3.3 2.1zm-0.4-6c0 0.6 0.3 0.9 0.7 0.9 0.3 0 0.6-0.2 0.6-0.9 0-0.7-0.3-0.9-0.6-0.9-0.4 0-0.7 0.2-0.7 0.9zm0.6 4.9c1 0 1.3-0.3 1.3-0.6 0-0.3-0.2-0.4-0.6-0.4h-1.3c-0.3 0.1-0.4 0.2-0.4 0.5 0 0.3 0.3 0.5 1 0.5z"/>
		<path id="Layer" class="s0" d="m54.8 13.9c0-1-0.6-1.3-1.4-1.3-0.8 0-1.3 0.2-1.8 0.6h-0.1v-0.6h-0.2l-2.3 0.2v1l0.7 0.2v3.2l-0.6 0.1v1h2.9v-1l-0.4-0.1v-3.1c0.2 0 0.4-0.1 0.7-0.1 0.4 0 0.6 0.1 0.6 0.6v2.6l-0.4 0.1v0.9h2.9v-0.9l-0.6-0.2z"/>
		<path id="Layer" class="s0" d="m63 17.3c-0.3 0.1-0.7 0.2-1.1 0.2-1.5 0-2.1-0.9-2.1-3 0-1.7 0.6-2.7 2-2.7 0.5 0 0.9 0.1 1.1 0.2l0.4 1.1h0.8l-0.1-1.9c-0.5-0.2-1.2-0.3-2.1-0.3-1.8 0-3.6 1-3.6 3.8 0 2.6 1.4 3.7 3.4 3.7 1.1 0 1.8-0.2 2.3-0.4l0.1-1.9h-0.8z"/>
		<path id="Layer" class="s0" d="m65.2 11.3c0 0.4 0.4 0.7 0.8 0.7 0.4 0 0.8-0.3 0.8-0.7 0-0.4-0.4-0.7-0.8-0.7-0.4 0-0.8 0.3-0.8 0.7z"/>
		<path id="Layer" class="s0" d="m66.7 12.8l-0.1-0.1-2 0.3v0.6l0.8 0.1v3.8l-0.7 0.2v0.5h2.7v-0.5l-0.7-0.2z"/>
		<path id="Layer" class="s0" d="m69.6 16.7v-3.1h0.9v-0.8h-0.9v-1.3h-1l-0.2 1.3-0.8 0.3v0.5h0.7v3.4c0 1 0.5 1.3 1.5 1.3 0.5 0 1-0.1 1.2-0.3v-0.6q-0.3 0.1-0.6 0.1c-0.6 0-0.8-0.2-0.8-0.8z"/>
		<path id="Layer" class="s0" d="m82.9 17.3c-0.3 0.1-0.6 0.2-1.1 0.2-1.5 0-2.1-0.9-2.1-3 0-1.7 0.6-2.7 2-2.7 0.5 0 0.9 0.1 1.1 0.2l0.4 1.1h0.8l-0.1-1.9c-0.4-0.2-1.2-0.3-2.1-0.3-1.8 0-3.6 1-3.6 3.8 0 2.7 1.4 3.7 3.4 3.7 1.1 0 1.8-0.2 2.4-0.4v-1.9h-0.7z"/>
		<path id="Layer" fill-rule="evenodd" class="s0" d="m90 15.5c0 1.8-1.2 2.9-2.7 2.9-1.7 0-2.7-1.1-2.7-2.8 0-1.8 1.2-2.9 2.7-2.9 1.6 0 2.7 1.1 2.7 2.8zm-1.4 0.1c0-1.6-0.6-2.1-1.3-2.1-0.7 0-1.3 0.4-1.3 2 0 1.6 0.6 2.1 1.3 2.1 0.7 0 1.3-0.5 1.3-2z"/>
		<path id="Layer" class="s0" d="m95.5 12.8l-0.2-0.1-1.8 0.2v0.6l0.6 0.2v3.4c-0.2 0.1-0.5 0.3-1.1 0.3-0.7 0-0.8-0.3-0.8-1v-3.6l-0.2-0.1-1.9 0.2v0.6l0.7 0.2v3.1c0 1 0.5 1.6 1.6 1.6 0.7 0 1.3-0.3 1.7-0.7h0.1v0.6l0.1 0.1 1.9-0.3v-0.6l-0.7-0.1v-4.6z"/>
		<path id="Layer" class="s0" d="m101.9 14.1c0-1-0.6-1.4-1.5-1.4-0.7 0-1.3 0.3-1.8 0.6h-0.1v-0.5l-0.1-0.1-1.9 0.3v0.6l0.8 0.2v3.7l-0.7 0.2v0.6h2.6v-0.6l-0.6-0.2v-3.6c0.3-0.1 0.6-0.2 1-0.2 0.6 0 1 0.2 1 0.8v3l-0.7 0.2v0.6h2.7v-0.6l-0.7-0.2v-3.4z"/>
		<path id="Layer" class="s0" d="m104.2 15.4c0-1.3 0.5-1.9 1.4-1.9 0.4 0 0.5 0 0.6 0.1l0.2 0.8h0.8v-1.5c-0.3-0.1-0.9-0.2-1.5-0.2-1.6 0-2.9 0.8-2.9 2.9 0 1.7 0.9 2.8 2.7 2.8 0.9 0 1.5-0.3 1.8-0.5v-0.7c-0.3 0.1-0.7 0.3-1.4 0.3-1 0-1.7-0.5-1.7-2.1z"/>
		<path id="Layer" class="s0" d="m109 12c0.5 0 0.8-0.3 0.8-0.7 0-0.4-0.3-0.7-0.8-0.7-0.4 0-0.7 0.3-0.7 0.7 0 0.4 0.3 0.7 0.7 0.7z"/>
		<path id="Layer" class="s0" d="m109.7 12.8l-0.1-0.1-1.9 0.3v0.6l0.7 0.2v3.7l-0.7 0.2v0.5h2.7v-0.5l-0.7-0.2z"/>
		<path id="Layer" class="s0" d="m74.2 13.4l0.6 0.2-1 3.1h-0.1l-1.2-3.2 0.7-0.1v-0.6h-2.5v0.6l0.5 0.1 1.9 4.6-0.3 0.6c-0.2 0.6-0.5 0.7-1.1 0.7-0.1 0-0.3 0-0.5 0v0.7c0.2 0.2 0.6 0.2 0.9 0.2 0.9 0 1.4-0.4 1.7-1.3l2.1-5.5 0.5-0.1v-0.6h-2.2v0.6z"/>
		<path id="Layer" class="s0" d="m112.7 17.5v-7h-0.1l-2 0.2v0.6l0.8 0.2v6l-0.7 0.2v0.6h2.7v-0.6z"/>
		<path id="Layer" class="s0" d="m51.5 3.7l0.5-0.1v-0.6h-2.1v0.6l0.6 0.1-1.1 3.1-1.2-3.1 0.6-0.1v-0.6h-2.6v0.6l0.6 0.1 1.9 4.6-0.3 0.6c-0.2 0.5-0.5 0.7-1 0.7-0.2 0-0.4 0-0.6-0.1v0.8c0.2 0.1 0.6 0.2 0.9 0.2 0.9 0 1.4-0.4 1.7-1.4z"/>
		<path id="Layer" fill-rule="evenodd" class="s0" d="m2.5 8.4h-2.4v-0.7l0.6-0.1 2.3-6.4h1.3l2.2 6.4 0.7 0.1v0.7h-3v-0.7l0.8-0.1-0.5-1.5h-2.3l-0.5 1.5 0.8 0.1c0 0 0 0.7 0 0.7zm0-3h1.8l-0.9-2.7z"/>
		<path id="Layer" fill-rule="evenodd" class="s0" d="m8 8.1v-6.4l-0.8-0.2v-0.6l1.9-0.3 0.2 0.1v2.7c0.4-0.3 0.9-0.5 1.6-0.5 1 0 2.1 0.5 2.1 2.6 0 2.1-1.2 3-2.9 3-0.9 0-1.7-0.2-2.2-0.4zm1.4-0.6c0.1 0.1 0.3 0.3 0.9 0.3 0.8 0 1.4-0.5 1.4-2.1 0-1.4-0.5-1.9-1.3-1.9-0.5 0-0.8 0.1-1 0.2z"/>
		<path id="Layer" class="s0" d="m15.7 7.8c-0.4 0-0.7-0.1-0.9-0.2l-0.2-0.8h-0.8l0.1 1.4c0.5 0.2 1.2 0.3 1.8 0.3 1.5 0 2.3-0.7 2.3-1.7 0-0.8-0.4-1.3-1.5-1.6l-0.6-0.2c-0.7-0.2-0.9-0.4-0.9-0.8 0-0.4 0.4-0.6 0.9-0.6 0.4 0 0.6 0.1 0.8 0.2l0.2 0.7h0.7v-1.4c-0.4-0.1-1-0.2-1.6-0.2-1.5 0-2.2 0.7-2.2 1.6 0 0.9 0.5 1.4 1.4 1.6l0.6 0.2c0.7 0.2 0.9 0.3 0.9 0.8 0 0.4-0.4 0.7-1 0.7z"/>
		<path id="Layer" fill-rule="evenodd" class="s0" d="m18.7 5.7c0-1.7 1.2-2.8 2.7-2.8 1.7 0 2.7 1 2.7 2.7 0 1.8-1.2 2.9-2.7 2.9-1.6 0-2.7-1.1-2.7-2.8zm1.4-0.1c0 1.6 0.6 2.1 1.3 2.1 0.7 0 1.3-0.4 1.3-2 0-1.6-0.6-2.1-1.3-2.1-0.7 0-1.3 0.5-1.3 2z"/>
		<path id="Layer" class="s0" d="m25.4 7.7l-0.7 0.1v0.6h2.8v-0.6l-0.8-0.1v-7l-0.1-0.1-2 0.3v0.6l0.8 0.1z"/>
		<path id="Layer" class="s0" d="m28.4 7c0 0.9 0.4 1.5 1.6 1.5 0.7 0 1.3-0.3 1.7-0.6h0.1v0.5l0.1 0.1 1.8-0.2v-0.6l-0.7-0.2v-4.5l-0.1-0.1-1.9 0.2v0.6l0.7 0.1v3.5c-0.3 0.1-0.6 0.2-1.1 0.2-0.7 0-0.9-0.3-0.9-0.9v-3.6l-0.1-0.1-1.9 0.2v0.6l0.7 0.1z"/>
		<path id="Layer" class="s0" d="m34.8 7.1c0 1 0.5 1.4 1.5 1.4 0.5 0 1-0.2 1.2-0.3v-0.6q-0.3 0-0.6 0c-0.6 0-0.8-0.2-0.8-0.7v-3.1h1.3v-0.8h-1.3v-1.3h-1l-0.2 1.3-0.8 0.2v0.6h0.7c0 0 0 3.3 0 3.3z"/>
		<path id="Layer" fill-rule="evenodd" class="s0" d="m37.8 5.6c0-1.7 1.1-2.7 2.6-2.7 1.7 0 2.4 0.9 2.4 2.9h-3.6c0.1 1.2 0.7 1.8 1.7 1.8 0.8 0 1.2-0.1 1.6-0.3v0.7c-0.4 0.2-0.9 0.5-1.9 0.5-1.9 0-2.8-1.1-2.8-2.9zm1.4-0.5h2.2c0-1.1-0.4-1.5-1-1.5-0.7 0-1.1 0.4-1.2 1.5z"/>
		<path id="Layer" class="s0" d="m44 7.7l-0.7 0.1v0.6h2.8v-0.6l-0.7-0.1v-7l-0.2-0.1-1.9 0.3v0.6l0.7 0.1z"/>
		<path id="Layer" class="s0" d="m57.4 4.7c-0.2 0-0.4-0.1-0.4-0.1v0.7c0 0 0.4 0.1 0.7 0.1 1.3 0 2.4-0.7 2.4-2.2 0-1.3-0.8-2-2.8-2h-3v0.6l0.8 0.2v5.6l-0.8 0.1v0.7h3.1v-0.7l-0.9-0.1v-5.6h0.9c0.8 0 1.2 0.4 1.2 1.3 0 0.9-0.4 1.4-1.2 1.4z"/>
		<path id="Layer" fill-rule="evenodd" class="s0" d="m60.3 5.7c0-1.8 1.2-2.9 2.6-2.9 1.7 0 2.7 1.1 2.7 2.8 0 1.8-1.2 2.9-2.6 2.9-1.7 0-2.7-1.1-2.7-2.8zm1.4-0.1c0 1.6 0.6 2.1 1.3 2.1 0.6 0 1.2-0.4 1.2-2 0-1.6-0.6-2.1-1.3-2.1-0.7 0-1.3 0.5-1.2 2z"/>
		<path id="Layer" class="s0" d="m68.2 7.8c-0.4 0-0.7-0.2-0.9-0.3l-0.2-0.8h-0.8l0.1 1.5c0.5 0.2 1.2 0.3 1.8 0.3 1.5 0 2.3-0.7 2.3-1.8 0-0.7-0.4-1.2-1.5-1.5l-0.6-0.2c-0.7-0.2-0.9-0.4-0.9-0.8 0-0.4 0.4-0.6 0.9-0.6 0.4 0 0.6 0.1 0.8 0.1l0.2 0.8h0.7v-1.4c-0.4-0.2-1-0.3-1.6-0.3-1.5 0-2.2 0.8-2.2 1.7 0 0.9 0.5 1.3 1.5 1.6l0.5 0.1c0.7 0.2 0.9 0.4 0.9 0.8 0 0.5-0.4 0.8-1 0.8z"/>
		<path id="Layer" class="s0" d="m71.8 7.6l-0.6 0.2v0.6h2.7v-0.6l-0.7-0.2v-4.7h-0.2l-1.9 0.2v0.6l0.7 0.2z"/>
		<path id="Layer" class="s0" d="m72.5 2.2c0.4 0 0.7-0.3 0.7-0.7 0-0.5-0.3-0.8-0.7-0.8-0.5 0-0.8 0.4-0.8 0.8 0 0.4 0.3 0.7 0.8 0.7z"/>
		<path id="Layer" class="s0" d="m76.2 6.9v-3.1h1.3l-0.1-0.9h-1.2v-1.2h-1.1l-0.1 1.2-0.9 0.3v0.6h0.7v3.3c0 1 0.6 1.4 1.6 1.4 0.5 0 0.9-0.2 1.1-0.3v-0.6q-0.2 0-0.6 0c-0.6 0-0.7-0.2-0.7-0.7z"/>
		<path id="Layer" class="s0" d="m78.1 7.8v0.6h2.7v-0.6l-0.7-0.2v-4.7h-0.1l-1.9 0.2v0.6l0.7 0.2v3.7z"/>
		<path id="Layer" class="s0" d="m79.4 2.2c0.5 0 0.8-0.3 0.8-0.7 0-0.5-0.3-0.8-0.8-0.8-0.4 0-0.7 0.4-0.7 0.8 0 0.4 0.3 0.7 0.7 0.7z"/>
		<path id="Layer" class="s0" d="m86.5 3.5v-0.5h-2.1v0.5l0.6 0.2-1.1 3.3h-0.1l-1.1-3.3 0.6-0.2v-0.5h-2.6v0.5l0.6 0.2 1.7 4.7h1.2l1.8-4.7z"/>
		<path id="Layer" fill-rule="evenodd" class="s0" d="m86.3 5.6c0-1.7 1.1-2.7 2.6-2.7 1.6 0 2.3 0.9 2.3 2.9h-3.5c0.1 1.2 0.7 1.8 1.7 1.8 0.7 0 1.2-0.1 1.6-0.3v0.7c-0.4 0.2-1 0.5-1.9 0.5-1.9 0-2.8-1.1-2.8-2.9zm1.4-0.5l2.1-0.1c0-1-0.3-1.4-1-1.4-0.6 0-1 0.4-1.1 1.5z"/>
		<path id="Layer" class="s0" d="m92.1 7.6l-0.7 0.2v0.6h2.7v-0.6l-0.7-0.2v-6.9l-0.1-0.1-2 0.2v0.7l0.8 0.1z"/>
		<path id="Layer" class="s0" d="m96.6 8.3l-0.2 0.6c-0.3 0.5-0.6 0.7-1.1 0.7-0.2 0-0.3 0-0.5-0.1v1c0.1 0.1 0.5 0 0.8 0 1 0 1.4-0.5 1.8-1.4l2-5.4 0.5-0.2v-0.6h-2.1v0.6l0.6 0.2-1 3.1h-0.1l-1.2-3.1 0.7-0.2v-0.6h-2.6v0.6l0.5 0.2z"/>
	</g>
</svg>